<svg xmlns="http://www.w3.org/2000/svg" viewBox="0 0 61.92 61.1"><defs><style>.cls-1{fill:#ff725e;}.cls-2{opacity:0.2;}.cls-3{fill:#fff;}.cls-4{opacity:0.3;}</style></defs><g id="Layer_2" data-name="Layer 2"><g id="Layer_1-2" data-name="Layer 1"><path class="cls-1" d="M3.94,42.56l1.15,2.29s5.34-2.45,8-2.75a21.88,21.88,0,0,0,6.42,6.33A20.61,20.61,0,0,1,18.18,54l2.37,1a15.83,15.83,0,0,1,2.81-4.57,20.09,20.09,0,0,0,8.53,1.43c.59,1.63,1.92,5.53,2,7.84l2.57-.08s0-6.26.95-8.68a21.39,21.39,0,0,0,8-4.45,20.91,20.91,0,0,1,4.3,3.16l1.81-1.83a15.65,15.65,0,0,1-3.22-4.42A21.25,21.25,0,0,0,51.64,37c1.63-.11,5.94-.34,8.24.24l.63-2.49s-5.58-1.63-7.83-3.15a21.43,21.43,0,0,0-.39-5.76,21,21,0,0,1,4.89-2.13l-.67-2.48a15,15,0,0,1-5.49.54,21.65,21.65,0,0,0-3.83-6c.49-1,2.71-5.51,4.54-7.38L49.9,6.56S45,11.21,42.7,12a21.26,21.26,0,0,0-5.07-2.35,21.49,21.49,0,0,1,.54-5.71l-2.46-.63S34.71,7,33.2,8.71A22.18,22.18,0,0,0,26.85,9s-3.44-4.88-4.26-7.68L20.16,2s1.67,6.72,1.1,9a21.47,21.47,0,0,0-4.11,2.77,21.39,21.39,0,0,1-4.76-3.37l-1.78,1.8S13.4,14.92,14,17.11A22.11,22.11,0,0,0,10.8,22.9C10,23,4.62,23.34,2,22.68l-.62,2.45S7.89,27,9.6,28.64a21.52,21.52,0,0,0,1,8.36C10,37.7,6.33,41.34,3.94,42.56ZM37.06,9.46h0Z"/><g class="cls-2"><path class="cls-3" d="M15.39,31.36c.89-.23,1.13-2,1.93-4.29.08-.29.22-.58.32-.89s.26-.6.38-.92a20.06,20.06,0,0,1,1-2,14.6,14.6,0,0,1,3-3.6,15.25,15.25,0,0,1,4.07-2.38,21.77,21.77,0,0,1,2.07-.68l1-.23a7.1,7.1,0,0,0,.94-.18c2.42-.43,4.24-.39,4.61-1.23a.81.81,0,0,0-.06-.71,2.54,2.54,0,0,0-.72-.88,8.43,8.43,0,0,0-3.54-1.66q-.63-.15-1.29-.24c-.46,0-.94-.08-1.43-.1a14.2,14.2,0,0,0-3.18.28,15.28,15.28,0,0,0-3.4,1.2A14.41,14.41,0,0,0,12.8,24c0,.49-.1,1-.11,1.41s0,.87,0,1.29a8.14,8.14,0,0,0,1.14,3.68,2.85,2.85,0,0,0,.78.84A.85.85,0,0,0,15.39,31.36Z"/></g><path class="cls-1" d="M49.54,5.18c-.33.33.22,1.42,1.23,2.44a7.26,7.26,0,0,0,1,.85c.64.44,1.19.61,1.41.39S53,7.45,52,6.43,49.87,4.86,49.54,5.18Z"/><g class="cls-4"><path d="M51.69,8.41A8.5,8.5,0,0,1,49.9,6.56a14.48,14.48,0,0,1-1.15,1,8.4,8.4,0,0,0,2.57,1.21Z"/></g><path class="cls-1" d="M56.89,19.86c-.45.12-.52,1.33-.17,2.72a7.72,7.72,0,0,0,.44,1.25c.33.7.72,1.13,1,1,.45-.11.53-1.33.17-2.72S57.34,19.75,56.89,19.86Z"/><g class="cls-4"><path d="M57.12,23.73a5.79,5.79,0,0,1-.61-2.49c-.47.13-1,.25-1.51.35a8.49,8.49,0,0,0,1.58,2.3Z"/></g><path class="cls-1" d="M61.53,33.75c-.45-.12-1.12.9-1.49,2.29a7.32,7.32,0,0,0-.22,1.31c-.06.77.07,1.33.37,1.41.45.12,1.11-.91,1.48-2.29S62,33.87,61.53,33.75Z"/><g class="cls-4"><path d="M59.8,37.23a8.91,8.91,0,0,1,.69-2.47L59,34.3a8.92,8.92,0,0,0,.25,2.82Z"/></g><path class="cls-1" d="M52.9,47.39c-.32-.34-1.41.21-2.43,1.22a6.31,6.31,0,0,0-.86,1c-.44.64-.61,1.18-.4,1.4s1.42-.21,2.44-1.22S53.23,47.72,52.9,47.39Z"/><g class="cls-4"><path d="M49.67,49.56a5.85,5.85,0,0,1,1.85-1.79c-.35-.33-.7-.71-1.07-1.12a8.7,8.7,0,0,0-1.19,2.52Z"/></g><path class="cls-1" d="M37.73,60.23c0-.46-1.17-.82-2.61-.79a7.37,7.37,0,0,0-1.32.12c-.75.16-1.26.44-1.25.75s1.18.82,2.61.79S37.74,60.69,37.73,60.23Z"/><g class="cls-4"><path d="M33.91,59.56a8.52,8.52,0,0,1,2.57,0V58a9,9,0,0,0-2.64,1Z"/></g><path class="cls-1" d="M21.43,56.07c.18-.42-.74-1.23-2-1.79a9,9,0,0,0-1.27-.42c-.75-.16-1.32-.11-1.44.17s.73,1.23,2,1.79S21.24,56.5,21.43,56.07Z"/><g class="cls-4"><path d="M18.22,53.89a5.72,5.72,0,0,1,2.35,1c.18-.44.4-.91.64-1.4a8.16,8.16,0,0,0-2.79-.15Z"/></g><path class="cls-1" d="M5,46.26c.42-.2.25-1.41-.38-2.69a6,6,0,0,0-.68-1.14c-.46-.62-.93-1-1.2-.83S2.48,43,3.1,44.3,4.57,46.47,5,46.26Z"/><g class="cls-4"><path d="M4,42.56a8.2,8.2,0,0,1,1.09,2.32c.44-.2.93-.42,1.44-.63a8.63,8.63,0,0,0-2-2Z"/></g><g class="cls-4"><path d="M39.44,35.35c-.38,1.63.19,3.16,1.29,3.42s2.29-.85,2.68-2.48-.19-3.16-1.29-3.42S39.8,33.73,39.44,35.35Z"/></g><path class="cls-1" d="M40.58,33.86c-.39,1.63.19,3.16,1.29,3.42s2.29-.85,2.68-2.48-.2-3.16-1.29-3.42S41,32.23,40.58,33.86Z"/><g class="cls-4"><path d="M44.24,18.56c-1.26-1.1-2.88-1.31-3.62-.46s-.32,2.42.94,3.53,2.88,1.31,3.62.46S45.5,19.7,44.24,18.56Z"/></g><path class="cls-1" d="M45.48,17.26c-1.26-1.1-2.88-1.31-3.62-.46s-.32,2.42.93,3.53,2.88,1.3,3.63.46S46.74,18.36,45.48,17.26Z"/><g class="cls-4"><path d="M31.51,42.84a2,2,0,1,0,2.41-1.49h0A2,2,0,0,0,31.51,42.84Z"/></g><path class="cls-1" d="M31.8,41.8a2,2,0,1,0,2.41-1.49h0A2,2,0,0,0,31.8,41.8Z"/><g class="cls-4"><path class="cls-3" d="M31.8,41.8a2,2,0,1,0,2.41-1.49h0A2,2,0,0,0,31.8,41.8Z"/></g><g class="cls-4"><path d="M22.7,22.56a2.45,2.45,0,1,0,.94-3.34A2.46,2.46,0,0,0,22.7,22.56Z"/></g><path class="cls-1" d="M22.06,21.4A2.45,2.45,0,1,0,23,18.06a2.45,2.45,0,0,0-.93,3.34Z"/><g class="cls-4"><path d="M21.18,42.42a1.46,1.46,0,1,0,1.76-1.09,1.46,1.46,0,0,0-1.75,1.09Z"/></g><path class="cls-1" d="M21.36,41.65a1.47,1.47,0,0,0,1.08,1.76,1.46,1.46,0,0,0,.68-2.84,1.47,1.47,0,0,0-1.76,1.08Z"/><path class="cls-1" d="M.37,26.13c.44.12,1.1-.89,1.46-2.26a6.23,6.23,0,0,0,.23-1.29c0-.76-.07-1.31-.37-1.39s-1.1.89-1.46,2.25S-.07,26,.37,26.13Z"/><g class="cls-4"><path d="M2.05,22.69a7.65,7.65,0,0,1-.68,2.44l1.48.46A8.22,8.22,0,0,0,2.6,22.8Z"/></g><path class="cls-1" d="M9.24,12.56c.32.32,1.4-.22,2.41-1.21a6.25,6.25,0,0,0,.85-1c.43-.63.6-1.17.39-1.39s-1.4.21-2.41,1.21S8.92,12.23,9.24,12.56Z"/><g class="cls-4"><path d="M12.43,10.44a5.47,5.47,0,0,1-1.82,1.76,10.88,10.88,0,0,1,1,1.11,7.94,7.94,0,0,0,1.19-2.49Z"/></g><path class="cls-1" d="M18.8,1.69c.12.45,1.32.5,2.69.13a6.45,6.45,0,0,0,1.23-.45c.69-.34,1.1-.73,1-1C23.6-.07,22.4-.13,21,.24S18.67,1.25,18.8,1.69Z"/><g class="cls-4"><path d="M22.61,1.42a7.9,7.9,0,0,1-2.45.63c.11.46.23,1,.34,1.51a7.92,7.92,0,0,0,2.3-1.62Z"/></g><path class="cls-1" d="M34.72,2.27c-.12.45.89,1.11,2.25,1.48A7.28,7.28,0,0,0,38.26,4c.76,0,1.32-.07,1.4-.36.12-.45-.89-1.11-2.25-1.48S34.8,1.83,34.72,2.27Z"/><g class="cls-4"><path d="M38.15,4a5.7,5.7,0,0,1-2.44-.69,13.43,13.43,0,0,1-.43,1.46A7.7,7.7,0,0,0,38,4.51Z"/></g><g class="cls-4"><path d="M17.17,36.16c.42,1.62,1.64,2.71,2.73,2.42s1.63-1.83,1.21-3.44-1.65-2.71-2.74-2.42S16.74,34.56,17.17,36.16Z"/></g><path class="cls-1" d="M16.51,35.17c.42,1.61,1.64,2.7,2.73,2.41s1.63-1.82,1.21-3.44-1.65-2.7-2.74-2.42S16.08,33.56,16.51,35.17Z"/><g class="cls-4"><path d="M28.34,28.88a3.56,3.56,0,1,0,0-.05Z"/></g><path class="cls-1" d="M28.74,27.17a3.3,3.3,0,1,0,0-.06Z"/><g class="cls-4"><path d="M16.89,43.21c-.18.19,0,.72.54,1.48a12.51,12.51,0,0,0,2.86,2.72,17.17,17.17,0,0,0,2.36,1.42A18.65,18.65,0,0,0,25.59,50,19.95,19.95,0,0,0,40,49.14a19.29,19.29,0,0,0,2.78-1.54,17.85,17.85,0,0,0,2.17-1.7,11.85,11.85,0,0,0,2.5-3c.45-.82.56-1.37.36-1.54-.45-.36-1.94.91-4.5,2.38-.64.37-1.36.73-2.13,1.1a24.92,24.92,0,0,1-2.52,1,22.31,22.31,0,0,1-6,1.22,23.68,23.68,0,0,1-6.11-.47,24.16,24.16,0,0,1-2.62-.71c-.81-.27-1.57-.55-2.24-.84C18.92,43.87,17.29,42.8,16.89,43.21Z"/></g><g class="cls-4"><path d="M49.8,34a1.85,1.85,0,1,0,1.36,2.31A1.9,1.9,0,0,0,49.8,34Z"/></g><g class="cls-4"><path class="cls-3" d="M40.58,33.86c-.39,1.63.19,3.16,1.29,3.42s2.29-.85,2.68-2.48-.2-3.16-1.29-3.42S41,32.23,40.58,33.86Z"/></g><g class="cls-4"><path class="cls-3" d="M45.48,17.26c-1.26-1.1-2.88-1.31-3.62-.46s-.32,2.42.93,3.53,2.88,1.3,3.63.46S46.74,18.36,45.48,17.26Z"/></g><g class="cls-4"><path class="cls-3" d="M22.06,21.4A2.45,2.45,0,1,0,23,18.06a2.45,2.45,0,0,0-.93,3.34Z"/></g><g class="cls-4"><path class="cls-3" d="M21.36,41.65a1.47,1.47,0,0,0,1.08,1.76,1.46,1.46,0,0,0,.68-2.84,1.47,1.47,0,0,0-1.76,1.08Z"/></g><g class="cls-4"><path class="cls-3" d="M16.51,35.17c.42,1.61,1.64,2.7,2.73,2.41s1.63-1.82,1.21-3.44-1.65-2.7-2.74-2.42S16.08,33.56,16.51,35.17Z"/></g><g class="cls-4"><path class="cls-3" d="M28.74,27.17a3.3,3.3,0,1,0,0-.06Z"/></g></g></g></svg>