<?xml version="1.0" encoding="utf-8"?>
<!-- Generator: Adobe Illustrator 25.1.0, SVG Export Plug-In . SVG Version: 6.00 Build 0)  -->
<svg version="1.1" id="Layer_1" xmlns="http://www.w3.org/2000/svg" xmlns:xlink="http://www.w3.org/1999/xlink" x="0px" y="0px"
	 viewBox="0 0 500 500" style="enable-background:new 0 0 500 500;" xml:space="preserve">
<style type="text/css">
	.st0{fill:#EBEBEB;}
	.st1{fill:#E0E0E0;}
	.st2{fill:#FFFFFF;}
	.st3{fill:#E6E6E6;}
	.st4{fill:#F5F5F5;}
	.st5{fill:#FAFAFA;}
	.st6{fill:#F0F0F0;}
	.st7{fill:#FF2216;}
	.st8{opacity:0.4;fill:#FC9C9A;enable-background:new    ;}
	.st9{fill:#407BFF;}
	.st10{opacity:0.7;fill:#FFFFFF;enable-background:new    ;}
	.st11{fill:#FF8B7B;}
	.st12{fill:#263238;}
	.st13{opacity:0.2;enable-background:new    ;}
	.st14{fill:#FF5652;}
	.st15{fill:#FFC3BD;}
	.st16{opacity:0.4;fill:#FEB5B1;enable-background:new    ;}
	.st17{fill:#ED847E;}
	.st18{fill:#E2E2E2;}
	.st19{fill:#EF7F7D;}
</style>
<rect x="403.2" y="377.4" class="st0" width="20.9" height="0.2"/>
<rect x="266.3" y="375.4" class="st0" width="32.6" height="0.2"/>
<rect x="350" y="366.3" class="st0" width="52.1" height="0.2"/>
<rect x="0.4" y="368.4" class="st0" width="12.2" height="0.2"/>
<rect x="22.3" y="368.4" class="st0" width="42.7" height="0.2"/>
<rect x="131.4" y="373.4" class="st0" width="59.8" height="0.2"/>
<rect x="403.2" y="377.4" class="st0" width="20.9" height="0.2"/>
<rect x="266.3" y="375.4" class="st0" width="32.6" height="0.2"/>
<rect x="350" y="366.3" class="st0" width="52.1" height="0.2"/>
<rect x="0.4" y="368.4" class="st0" width="12.2" height="0.2"/>
<rect x="22.3" y="368.4" class="st0" width="42.7" height="0.2"/>
<rect x="131.4" y="373.4" class="st0" width="59.8" height="0.2"/>
<ellipse class="st1" cx="136.7" cy="326" rx="29.9" ry="32.1"/>
<ellipse class="st1" cx="329.1" cy="326" rx="29.9" ry="32.1"/>
<polygon class="st0" points="35.6,184.8 4.4,253.2 4.4,317.5 125,317.5 125,184.8 "/>
<polygon class="st2" points="40.5,197.1 20.5,241.1 20.5,255.8 69.9,255.8 69.9,197.1 "/>
<rect x="85.6" y="184.8" class="st1" width="21" height="132.6"/>
<rect x="94.2" y="162.6" class="st0" width="286.7" height="154.9"/>
<rect x="4.4" y="317.5" class="st3" width="376.5" height="10.7"/>
<ellipse class="st3" cx="39.8" cy="326.1" rx="29.9" ry="32.1"/>
<path class="st4" d="M39.8,310.2c8.2,0,14.8,7.1,14.8,15.9s-6.6,15.9-14.8,15.9s-14.8-7.1-14.8-15.9l0,0
	C24.9,317.3,31.6,310.2,39.8,310.2 M39.8,305.4c-10.6,0-19.2,9.3-19.2,20.7s8.6,20.7,19.2,20.7S59,337.6,59,326.1l0,0
	C59,314.7,50.4,305.4,39.8,305.4L39.8,305.4z"/>
<ellipse class="st3" cx="232.3" cy="326.1" rx="29.9" ry="32.1"/>
<path class="st4" d="M232.3,310.2c8.2,0,14.8,7.1,14.8,15.9s-6.6,15.9-14.8,15.9c-8.2,0-14.8-7.1-14.8-15.9l0,0
	C217.5,317.3,224.1,310.2,232.3,310.2 M232.3,305.4c-10.6,0-19.2,9.3-19.2,20.7s8.6,20.7,19.2,20.7c10.6,0,19.2-9.3,19.2-20.7l0,0
	C251.5,314.7,242.9,305.4,232.3,305.4L232.3,305.4z"/>
<rect x="278.4" y="172.9" class="st1" width="98" height="140.4"/>
<rect x="299.3" y="271.3" class="st5" width="28.1" height="42"/>
<rect x="309.7" y="271.3" class="st4" width="7.2" height="14.4"/>
<rect x="331" y="280.7" class="st5" width="28.1" height="32.6"/>
<rect x="327.4" y="280.7" class="st0" width="3.6" height="32.6"/>
<rect x="341.5" y="280.7" class="st4" width="7.2" height="14.4"/>
<rect x="376.4" y="172.9" class="st6" width="56.8" height="140.4"/>
<rect x="278.4" y="172.9" class="st6" width="20.9" height="140.4"/>
<ellipse class="st2" cx="201.4" cy="233.2" rx="44.9" ry="48.3"/>
<rect x="194.2" y="205.8" class="st0" width="14.5" height="54.8"/>
<rect x="176" y="225.4" class="st0" width="51" height="15.6"/>
<ellipse class="st0" cx="216.9" cy="50.4" rx="41.5" ry="44.6"/>
<ellipse class="st0" cx="253" cy="54.7" rx="36.1" ry="44.2"/>
<ellipse class="st0" cx="182" cy="61.9" rx="36.7" ry="39.5"/>
<ellipse class="st5" cx="142.2" cy="67.3" rx="20.3" ry="21.9"/>
<ellipse class="st0" cx="279.8" cy="67.3" rx="23.1" ry="24.9"/>
<ellipse transform="matrix(4.381336e-02 -0.999 0.999 4.381336e-02 323.9098 435.2302)" class="st0" cx="389.3" cy="48.4" rx="31.6" ry="29.4"/>
<ellipse class="st0" cx="367.3" cy="62.6" rx="22.3" ry="24"/>
<ellipse class="st0" cx="415.4" cy="62.1" rx="26.1" ry="28.1"/>
<ellipse class="st0" cx="433.2" cy="50.4" rx="15.8" ry="17"/>
<ellipse class="st0" cx="63.9" cy="43.8" rx="25.7" ry="27.6"/>
<ellipse class="st0" cx="86.9" cy="38.1" rx="19.5" ry="20.9"/>
<ellipse class="st0" cx="42.8" cy="33.5" rx="22.7" ry="24.4"/>
<ellipse class="st0" cx="25.4" cy="39.6" rx="13.8" ry="14.9"/>
<ellipse id="freepik--path--inject-169" class="st0" cx="226" cy="398.8" rx="207.1" ry="13.4"/>
<rect x="19.3" y="331.7" class="st7" width="73.8" height="63.2"/>
<rect x="18.9" y="331.7" class="st8" width="74.8" height="63.2"/>
<rect x="67" y="331.7" class="st8" width="26.1" height="63.2"/>
<path class="st2" d="M86.6,363.3c0,6.7-2.5,12-5.6,12s-5.6-5.4-5.6-12s2.5-12,5.6-12C84.1,351.3,86.6,356.7,86.6,363.3z"/>
<rect x="79.9" y="355.9" class="st9" width="2.1" height="14.7"/>
<rect x="76.9" y="361.3" class="st7" width="8.1" height="3.9"/>
<rect x="38.4" y="370.9" class="st10" width="9.3" height="23.9"/>
<rect x="38.4" y="331.7" class="st10" width="9.3" height="11.2"/>
<rect x="78.5" y="331.7" class="st7" width="73.8" height="63.2"/>
<rect x="78.5" y="331.7" class="st8" width="73.8" height="63.2"/>
<rect x="126" y="331.7" class="st8" width="26.1" height="63.2"/>
<path class="st2" d="M145.7,363.3c0,6.7-2.5,12-5.6,12c-3.1,0-5.6-5.4-5.6-12s2.5-12,5.6-12C143.1,351.3,145.7,356.7,145.7,363.3z"
	/>
<rect x="138.9" y="355.9" class="st7" width="2.1" height="14.7"/>
<rect x="136" y="361.3" class="st7" width="8.1" height="3.9"/>
<rect x="97.6" y="331.7" class="st10" width="9.3" height="23.9"/>
<rect x="97.6" y="383.7" class="st10" width="9.3" height="11.2"/>
<rect x="54.1" y="283.5" class="st7" width="73.8" height="48.3"/>
<rect x="54.6" y="283.5" class="st8" width="73.8" height="48.3"/>
<rect x="101.7" y="283.5" class="st8" width="26.1" height="48.3"/>
<ellipse class="st2" cx="115.7" cy="307.6" rx="5.6" ry="12"/>
<rect x="114" y="300.3" class="st7" width="2.9" height="14.7"/>
<rect x="111.6" y="305.6" class="st7" width="8.1" height="3.9"/>
<rect x="73.3" y="283.5" class="st10" width="9.3" height="16.4"/>
<rect x="73.3" y="320.5" class="st10" width="9.3" height="11.2"/>
<path class="st11" d="M141.3,89.3l4,7.1c1.3,2.4,2.7,4.8,4.1,7c2.8,4.6,5.6,9.3,8.6,13.6c0.8,1.1,1.5,2.1,2.3,3.2
	c0.4,0.5,0.8,1.1,1.2,1.5l0.6,0.7l0.3,0.4c0,0.1,0,0,0,0l-0.1-0.1l-0.2-0.1c-0.6-0.4-0.8-0.4-0.7-0.2c0.2,0.1,0.4,0.2,0.7,0.2
	c1,0.1,1.9,0.2,2.9,0.1c5-0.5,9.8-1.2,14.8-2.3l2.8,7c-2.4,1.7-4.9,3.1-7.4,4.4c-2.7,1.3-5.4,2.4-8.3,3.2c-1.7,0.5-3.3,0.7-5.1,0.7
	c-1.1,0-2.2-0.1-3.2-0.2c-1.5-0.4-3-1.1-4.3-2c-0.2-0.1-0.3-0.4-0.6-0.5l-0.3-0.2l-0.2-0.2l-0.3-0.5l-0.8-0.8
	c-0.4-0.6-1-1.1-1.5-1.7c-1-1.2-2-2.3-2.9-3.4c-3.6-4.5-7-9.3-10.1-14.3c-1.5-2.4-3.1-4.9-4.4-7.4c-1.3-2.5-2.8-5-4.2-7.7
	L141.3,89.3z"/>
<path class="st8" d="M177.2,122.3l8-8l5.9,9.6c0,0-5.3,7-11.7,3.8L177.2,122.3z"/>
<path class="st8" d="M195,112.8l1.1,5.2c0.2,0.8-0.1,1.8-0.8,2.4l-4.3,3.7l-5.9-9.6l6.9-3.2c1.1-0.5,2.4,0.1,2.9,1.3
	C194.9,112.6,195,112.7,195,112.8z"/>
<path class="st9" d="M163.9,387.5c-0.1,0-0.1-0.1-0.1-0.2s0-0.2,0.1-0.2c0.4-0.1,4.4-1.7,5.5-0.8c0.2,0.1,0.3,0.5,0.3,0.7l0,0
	c0,0.5-0.2,0.8-0.6,1.1C168.1,388.9,165.4,388.1,163.9,387.5L163.9,387.5z M169.1,386.5c-0.7-0.4-2.9,0.1-4.4,0.7
	c2,0.7,3.5,0.8,4.2,0.4c0.2-0.1,0.3-0.5,0.3-0.7C169.2,386.7,169.2,386.6,169.1,386.5L169.1,386.5z"/>
<path class="st9" d="M165.7,383.5c0.3-0.2,0.9-0.4,1.3-0.2c0.6,0.1,0.8,0.5,0.8,0.8c0,1.2-2.4,3-3.6,3.4H164l0,0
	c0-0.1-0.1-0.1-0.1-0.2C163.8,387.1,164.4,384.5,165.7,383.5z M167.3,384.1c0,0,0-0.1-0.2-0.2l-0.2-0.1h-0.1c-0.3,0-0.6,0-0.9,0.2
	c-0.8,0.7-1.3,1.8-1.7,3C165.6,386.3,167.4,384.8,167.3,384.1L167.3,384.1z"/>
<polygon class="st11" points="155.1,388.4 164.5,388.3 163.8,364.6 154.4,364.9 "/>
<path class="st12" d="M164.6,387.1l-10.3,0.1c-0.3,0-0.7,0.4-0.8,0.7l-0.9,9c-0.1,1,0.6,1.7,1.4,1.8h0.1c3.8-0.1,9.1-0.5,13.7-0.6
	c5.4-0.1,5,0.1,11.3,0c3.9,0,4.5-4.3,2.9-4.6c-7.5-1.7-8.3-1.7-15.1-5.8C166.3,387.3,165.4,387.1,164.6,387.1z"/>
<polygon class="st13" points="163.8,364.6 164.2,376.9 154.8,377 154.4,364.9 "/>
<path class="st11" d="M142,44.4c-0.3,7.6,0.2,22.5-4.9,27.4c3.5,4,9.4,7.4,17.6,8c8.2,0.6,6.3-4.4,4.3-7.6
	c-7.6-2.3-6.2-9.5-4.5-15.2L142,44.4z"/>
<path class="st7" d="M133.6,70.6c0.2-2.1,1.4-6.4,6.7-4.9s11.6,1,16.4,1.3c4.8,0.4,5.1,6.8,5.1,6.8L133.6,70.6z"/>
<path class="st12" d="M135.5,69.2c11.4-0.1,25.5,1.3,33.2,3.9c2,0.7,3.4,2.6,3.5,4.9c0.4,9.2,1.7,39.5,2.8,86.7l-50.5,0.8
	c0.3-26-1-52.2-4-78.1c-1-9,4.9-17.1,13.3-18.3C134.3,69.2,135,69.2,135.5,69.2z"/>
<polygon class="st8" points="177.8,129 183.4,83.1 253.4,93 247.8,138.9 "/>
<polygon class="st8" points="177.8,129 183.4,83.1 253.4,93 247.8,138.9 "/>
<polygon class="st7" points="200.4,132.4 205.9,86.5 253.4,93.1 247.8,139 "/>
<ellipse transform="matrix(3.842879e-02 -0.9993 0.9993 3.842879e-02 107.0607 337.0074)" class="st2" cx="228.6" cy="112.9" rx="11.5" ry="10.4"/>
<polygon class="st7" points="225.8,119.6 227.5,105.6 231.4,106.1 229.7,120.2 "/>
<polygon class="st7" points="221,113.8 221.5,110.1 236.3,112.2 235.9,115.9 "/>
<polygon class="st10" points="190.3,100.1 192.2,84.4 196.3,85 194.4,100.7 "/>
<polygon class="st10" points="186.6,130.4 187.9,119.8 191.9,120.3 190.6,130.9 "/>
<path class="st11" d="M175.5,86.4c0.2,1.2,0.6,2.6,0.9,3.9l1,4c0.7,2.7,1.3,5.5,2.1,8.1s1.5,5.4,2.4,8c0.9,2.6,1.8,5.1,2.9,7.6
	c0.6,1.2,1,2.4,1.7,3.6c0.2,0.6,0.6,1.2,0.9,1.7l0.4,0.8l0.2,0.4l0,0v-0.1l-0.1-0.1c-0.1-0.1-0.2-0.2-0.2-0.2
	c-0.3-0.4-0.7-0.6-1.1-0.7c-0.1-0.1-0.3-0.1-0.6-0.1c-0.1,0,0.1,0.1,0.4,0.1c1,0,1.9,0,2.9-0.2c5-1.2,10-2.6,14.8-4.4l3.5,6.7
	c-2.2,2-4.5,3.8-7.1,5.5c-2.5,1.7-5.3,3.2-8.1,4.3c-1.7,0.7-3.4,1.2-5.2,1.4c-1.2,0.2-2.4,0.2-3.6,0c-0.9-0.1-1.7-0.5-2.4-0.8
	c-1-0.5-1.9-1.2-2.8-2c-0.2-0.2-0.4-0.5-0.7-0.7l-0.2-0.4l-0.1-0.2l-0.3-0.5l-1-1c-0.4-0.7-0.9-1.4-1.2-2c-0.8-1.4-1.5-2.9-2.3-4.2
	c-2.8-5.6-5-11.3-6.9-17.4c-0.9-3-1.8-5.8-2.4-8.8c-0.3-1.4-0.7-3-1-4.5s-0.6-3-0.9-4.6L175.5,86.4z"/>
<path class="st12" d="M157.2,78.7c-4.5,8.6,7.6,37,7.6,37l18.8-7.7c0,0-0.7-14.4-5.6-25.6C172.8,71,162.1,69.3,157.2,78.7z"/>
<path class="st12" d="M216.9,114.5l-3.4,0.4c-2,0.1-3.9,0.7-5.6,1.5l-5.1,2.4c-0.7,0.4-1,1.2-0.8,1.9l2,6.4c0.2,0.7,0.9,1.1,1.5,1.1
	c2.7-0.2,5.3-0.8,7.9-1.9l4.3-1.9c0.7-0.4,1.1-1.1,1.1-1.9l0.2-5.4C219.1,115.8,218.2,114.6,216.9,114.5
	C217,114.5,217,114.5,216.9,114.5z"/>
<path class="st12" d="M205.8,120c1-1.3,2.2-6.5,1.5-8c-0.7-1.4-1.9,2.1-2.7,3.1c-2,2.6-3.8,5.2-2.3,5.9
	C203.9,121.7,204,122.2,205.8,120z"/>
<path class="st12" d="M165,38.2c0.1,0.8,0.6,1.4,1,1.4c0.4,0,0.9-0.7,0.8-1.5c-0.1-0.8-0.6-1.4-1-1.4S164.9,37.4,165,38.2z"/>
<path class="st14" d="M164.2,38.2c1.1,2.4,2.5,4.6,4.2,6.7c-1,1-2.3,1.3-3.5,1.1L164.2,38.2z"/>
<path class="st12" d="M162.5,34.1c-0.1,0-0.1,0-0.2-0.1c-0.2-0.1-0.2-0.5-0.1-0.7l0,0c0.8-1.3,2-2.3,3.4-2.4c0.2,0,0.4,0.2,0.4,0.5
	l0,0c0,0.2-0.2,0.5-0.4,0.5l0,0l0,0c-1.1,0.1-2.1,0.8-2.8,1.9C162.8,34,162.6,34.1,162.5,34.1z"/>
<path class="st11" d="M139.1,37.1c1.3,10,1.7,15.8,6.7,20.6c7.6,7,18.8,1.3,20.3-8.9c1.3-9.2-1.1-23.9-10.5-27
	c-6.9-2.3-14,1.9-16.1,9.3C138.9,32.9,138.8,34.9,139.1,37.1z"/>
<path class="st12" d="M161.4,42c2.1-1.3,2.8-4.3,1.5-6.5c-0.1-0.2-0.2-0.4-0.4-0.6c-1.5-1.9-4.2-5.2-2.7-6.7c1.5-1.4,9.3-4.3,6.4-10
	c-2.9-5.7-8.8-9.3-12.8-5s-5.2,2-11.6,1.2c-6.4-0.8-9.3,6.2-7.1,8.9s-5.8,4.2-3.1,7.9c-4.9,2.7-0.1,11.3,3.6,15
	c3.8,3.7,1.2,9.9,7.7,12.1S164.3,50,161.4,42z"/>
<path class="st7" d="M160.8,55.4c-0.2,0-0.4-0.1-0.6-0.4c-0.2-0.4-5.1-9.3-1.7-14.3c1.2-1.7,2.3-2.5,3.6-2.4
	c2.1,0.1,3.5,2.7,4.5,4.9c0.1,0.4,0,0.7-0.2,1c-0.3,0.1-0.7,0-0.9-0.2c-0.4-1-2-4-3.5-4.2c-0.8,0-1.7,0.6-2.5,1.9
	c-2.9,4.3,1.7,12.7,1.8,12.8c0.2,0.4,0.1,0.7-0.2,1C161.1,55.4,160.9,55.4,160.8,55.4z"/>
<path class="st9" d="M101.5,384c-0.1,0-0.1-0.1-0.1-0.2c0-0.1,0-0.2,0.1-0.2c0.4-0.2,4.3-2,5.4-1.3c0.2,0.1,0.3,0.4,0.3,0.7l0,0
	c0,0.5-0.1,1-0.4,1.2C105.7,385.1,103,384.5,101.5,384L101.5,384z M106.7,382.7c-0.7-0.4-2.8,0.5-4.3,1.1c2.1,0.5,3.6,0.5,4.2,0
	c0.2-0.1,0.3-0.5,0.3-0.7C106.8,382.9,106.8,382.8,106.7,382.7L106.7,382.7z"/>
<path class="st9" d="M103,380c0.3-0.2,0.8-0.4,1.2-0.4c0.7,0.1,0.8,0.5,0.8,0.7c0.1,1.2-2.2,3.2-3.4,3.7h-0.1h-0.1
	c-0.1-0.1-0.1-0.1-0.1-0.2C101.3,383.7,101.8,380.9,103,380z M104.7,380.4c0,0,0-0.1-0.2-0.2l-0.2-0.1H104c-0.2,0-0.6,0.1-0.8,0.2
	c-0.8,0.8-1.2,1.9-1.4,3.1C103.1,382.7,104.7,381.2,104.7,380.4L104.7,380.4z"/>
<polygon class="st11" points="91.9,383.1 101.1,385.6 107.2,362.8 98.1,360.3 "/>
<path class="st12" d="M101.7,383.7l-10-2.9c-0.3-0.1-0.8,0.1-0.9,0.5l-3.2,8.4c-0.3,0.8,0.1,1.8,0.9,2.1c0.1,0,0.1,0,0.2,0
	c3.6,1,4.9,1,9.3,2.3c5.3,1.4,6.2,4.5,12.6,4.6c3.9,0,4.5-4.2,3-4.6c-5.2-1.3-8.2-6.2-9.8-9.2C103.3,384.2,102.6,383.8,101.7,383.7z
	"/>
<polygon class="st13" points="107.2,362.8 104,374.6 94.9,372 98.1,360.3 "/>
<path class="st7" d="M113.8,262.7c5.4-38.2,3.1-75.3,10.7-96.9l33.4-0.6c0,0-14.5,69.6-21,99.9c-6.7,31.5-28.2,104.9-28.2,104.9
	L94,365.8C94,365.8,105.2,290.2,113.8,262.7z"/>
<path class="st13" d="M137.9,230.3c0,7.5,0.6,15.7,1.2,24.4c4.3-20.3,10.3-49.1,14.4-68.5C141.3,196.1,137.9,211.2,137.9,230.3z"/>
<path class="st11" d="M156.5,43.1c0.6,2,1.9,3.8,3.6,4.9c2.3,1.3,4.1-0.7,4-3.4c-0.1-2.4-1.5-6.1-4.1-6.3c-1.9-0.1-3.5,1.4-3.6,3.4
	C156.3,42.2,156.4,42.6,156.5,43.1z"/>
<path class="st7" d="M165.4,40.3c2.9,0.6,3.3,3.8,3.3,5.1s-2.7,12-8,14c-5.3,2-5.3,0.7-4.5-0.8C157,57,164.2,50.1,165.4,40.3z"/>
<path class="st7" d="M148.5,262.9c-4.5-40-10.6-76.4-6-97.7l32.5-0.6c0,0-1.9,71.1-3.4,102.1c-1.7,32.1-4,107.6-4,107.6l-16,0.2
	C151.7,374.6,146.2,303.2,148.5,262.9z"/>
<polygon class="st12" points="168.6,374.7 149.7,375.1 148.6,368.4 169.7,367.7 "/>
<polygon class="st12" points="109.9,373.9 91.5,368.8 92.1,362 112.6,367.5 "/>
<path class="st12" d="M321.8,40.6c-11.6,10.1-14.6,26.4-10.4,33.8c6,10.5,29.9,13.3,41.1,7c5.3-3,10.1-36.3-5.3-42.7
	C341.5,29.7,328.4,34.9,321.8,40.6z"/>
<polygon class="st15" points="363.5,360.6 355,367 331.4,342.9 341.5,331 "/>
<path class="st12" d="M353.8,364.7l8.5-8.4c0.3-0.4,0.8-0.4,1.1-0.1l6.7,5.8c0.7,0.7,0.7,1.8,0,2.5l-0.1,0.1c-3,3-4.6,4.2-8.4,7.9
	c-2.3,2.3-6.9,7.3-10.1,10.5c-3.2,3.2-6.1,0.1-5-1.4c4.9-7.3,5.8-11.3,6.3-15C353.1,365.8,353.4,365.2,353.8,364.7z"/>
<path class="st7" d="M352,368.9c-0.6,0.7-1.3,1.2-2.2,1.3c-0.4,0-0.9-0.1-1.1-0.6c-0.1-0.2-0.2-0.5-0.1-0.8c0.6-1.4,4.9-2.9,5.3-3.1
	c0.1,0,0.2,0,0.2,0.1c0,0.1,0,0.2,0,0.2C353.6,367.2,352.9,368.1,352,368.9z M349.4,368.7c-0.1,0.1-0.2,0.2-0.3,0.4
	c0,0.1,0,0.2,0,0.4c0.1,0.2,0.4,0.4,0.7,0.4c0.8,0,2.1-1.2,3.5-3.2C352,367,350.6,367.7,349.4,368.7z"/>
<path class="st7" d="M354.2,366.3L354.2,366.3c-1.3,0.6-4.5,0.7-5.1-0.4c-0.1-0.2-0.2-0.6,0.2-1.2c0.3-0.4,0.8-0.6,1.2-0.7
	c1.7-0.1,3.5,1.8,3.6,1.8c0.1,0.1,0.1,0.1,0.1,0.2C354.4,366.2,354.2,366.3,354.2,366.3z M349.8,365l-0.1,0.1
	c-0.3,0.4-0.2,0.5-0.2,0.6c0.3,0.6,2.7,0.7,4.1,0.4c-0.8-0.8-1.9-1.3-3-1.4C350.4,364.6,350,364.7,349.8,365z"/>
<polygon class="st15" points="344.3,389.6 334.2,390 332.3,352.4 346.2,352.6 "/>
<path class="st12" d="M333.6,386.5l11.2-0.1c0.4,0,0.8,0.4,0.8,0.7l0.7,9.5c0,1.1-0.8,1.9-1.8,1.9l0,0c-3.9,0-5.8-0.2-10.7-0.2
	c-3.1,0-7.5,0.4-11.7,0.5c-4.2,0.1-4.1-4.4-2.3-4.9c8-1.9,9.3-4.4,12.2-6.8C332.3,386.7,332.9,386.6,333.6,386.5z"/>
<path class="st7" d="M316.3,104.7c-0.6,2.5-1.2,5-2,7.4c-0.8,2.4-1.3,4.9-2.1,7.4c-1.5,4.9-3.1,9.8-5.2,14.6
	c-0.6,1.2-1.1,2.5-1.7,3.7c-0.7,1.4-1.4,2.7-2.2,3.9c-0.7,1-1.3,1.8-2.2,2.5c-0.9,0.7-2,1.2-3.1,1.4c-0.7,0.1-1.3,0.1-2,0.1
	c-0.9-0.1-1.8-0.4-2.5-0.6c-0.7-0.2-1.3-0.5-2-0.7c-2.3-1.1-4.6-2.4-6.7-3.8c-2.1-1.4-4.1-3-6-4.6c-1.2-1.1-1.3-3-0.3-4.3
	c0.8-1,1.9-1.3,3-1h0.1l6.5,2.3c2.1,0.7,4.1,1.3,6.2,1.9c0.4,0.1,0.9,0.2,1.3,0.2c0.3,0,0.6,0,0.9,0c0,0,0,0-0.2,0
	c-0.6,0.1-1.1,0.4-1.4,0.7l-0.1,0.1l0,0l0,0l0,0c0,0,0.1-0.1,0.2-0.4c0.4-0.8,0.9-1.7,1.2-2.6c0.4-1,0.9-2,1.2-3.2
	c1.5-4.4,3-9.2,4.3-13.8l2-7.1l2-7.1l0,0c0.9-3.2,4-5,7-4C315.4,98.4,317.1,101.6,316.3,104.7L316.3,104.7z"/>
<path class="st12" d="M273.9,121.6l-3.6-1c-1.1-0.2-2.1,0.5-2.4,1.5l0,0l-1.1,5.4c-0.2,1,0.2,1.9,1.1,2.4l5.8,3
	c1.3,1.7,3.1,2.9,5.1,3.2c1.2,0.1,2.4-0.7,2.9-2l0.4-1.3c0.3-1,0.2-2-0.3-2.9l-3.9-5.8C276.7,123,275.4,122,273.9,121.6z"/>
<path class="st12" d="M277.8,130.2c-0.4-1.7,0.6-7.5,1.8-8.6c1.2-1.1,1.1,2.5,1.3,3.9c0.6,3.3,1.9,5.9,0.9,8.2
	C280.9,135.3,278.5,133,277.8,130.2z"/>
<path class="st7" d="M304.6,105.7c-0.6,9.4-0.6,25,0.8,50.7l40.3,1.4c1-16.2,2-26.6,10.6-55.3c1.4-4.8-1-10-5.4-11.5
	c-0.4-0.1-0.9-0.2-1.3-0.4c-2.2-0.4-4.6-0.7-7.2-1c-6.1-0.7-12.2-1-18.2-0.6c-1.7,0.1-3.3,0.2-5.1,0.5
	C311.2,90.2,305,97.2,304.6,105.7z"/>
<path class="st2" d="M324.2,89c0,0-5.8,1-1.2,14.2c7.2-3.2,13.8-7.7,19.5-13.6L324.2,89z"/>
<ellipse transform="matrix(0.1119 -0.9937 0.9937 0.1119 183.3934 432.9855)" class="st2" cx="333.9" cy="113.9" rx="5.9" ry="5"/>
<path class="st13" d="M348.3,107.1c-0.6,6.5-0.9,17.7,0.3,24.9c0.9-4.6,2.1-10,3.9-16.2L348.3,107.1z"/>
<path class="st15" d="M342.7,67.3c-1.8,6.3-4.1,18.1-0.4,22.5c0,0-6.1,5.5-18.6,11.1C319,90.6,324.1,89,324.1,89
	c6.7-1.4,7.1-6.8,6.4-11.8L342.7,67.3z"/>
<path class="st13" d="M339.4,72.1l-8.8,5.1c0.2,1.2,0.2,2.4,0.2,3.6c1.9,0,6.7-1.8,8.4-5.2C339.6,74.5,339.8,73.3,339.4,72.1z"/>
<path class="st15" d="M349.2,53.9c-1.1,10.6-1.3,15.1-6.5,20.3c-7.9,7.9-19.7,4-21.6-6.7c-1.7-9.6,0.3-25.3,10.2-29.1
	c7.1-2.7,14.7,1.2,17.3,8.8C349.2,49.4,349.4,51.7,349.2,53.9z"/>
<path class="st12" d="M335.6,39.5c-6.7,4.2,7.9,20.6,11.5,20.3c6.3-3.9,6.4-12.1,2.9-16.1C346.4,39.9,344,34.4,335.6,39.5z"/>
<path class="st7" d="M342,69.9c-0.3,0-0.7-0.4-0.7-0.7s0.2-0.6,0.6-0.7c4.4-0.8,7.2-2.4,7.9-4.3c0.3-1.4-0.1-3-1.2-4
	c-0.4-0.5-1-0.8-1.5-0.8c-2.7-0.2-6.4,3.4-7.7,4.8l-0.3,0.2c-0.2,0.2-0.7,0.2-0.9-0.1c-0.2-0.2-0.2-0.7,0.1-1l0,0l0.2-0.2
	c1.7-1.5,5.5-5.4,8.7-5.1c0.9,0,1.8,0.5,2.4,1.3c1.4,1.8,2,3.7,1.4,5.4c-0.8,2.5-3.8,4.3-8.7,5.2L342,69.9z"/>
<path class="st12" d="M343,38.7c4.9,2.4-17.4,2.5-21.9,8.8C324.8,41.3,330.5,32.5,343,38.7z"/>
<path class="st9" d="M305.4,156.4c0,0-20.8,95-18.9,119.3c2.2,28.4,44.8,69.3,44.8,69.3l12.2-14.3c0,0-25.8-31.3-35.5-55.8
	c3.2-24.5,31.6-94.2,30.5-117.5L305.4,156.4z"/>
<path class="st7" d="M305.4,156.4c0,0-20.8,95-18.9,119.3c2.2,28.4,44.8,69.3,44.8,69.3l12.2-14.3c0,0-25.8-31.3-35.5-55.8
	c3.2-24.5,31.6-94.2,30.5-117.5L305.4,156.4z"/>
<polygon class="st2" points="346.1,332.5 331.5,346.5 327.1,343.7 343.1,327.4 "/>
<path class="st16" d="M321.5,197.4c-11.6,17.4-12.3,49.4-11.5,67.3c4-16.5,12.6-40.7,19.2-62.8C329,193.2,326.9,189.2,321.5,197.4z"
	/>
<path class="st7" d="M312.9,156c0,0,8.2,82.3,10.7,110.4c3.1,33.4,7.6,86.9,7.6,86.9l14.9-0.7c0,0,3.3-45.3,0.9-75.3
	c0.4-39.7,6.9-95-1.4-119.5L312.9,156z"/>
<path class="st8" d="M312.7,156c0,0,8.2,82.3,10.7,110.4c3.1,33.4,7.6,86.9,7.6,86.9l14.9-0.7c0,0,3.3-45.3,0.9-75.3
	c0.4-39.7,6.9-95-1.4-119.5L312.7,156z"/>
<polygon class="st2" points="347.4,355.6 330.2,355.1 329,349.3 348.4,348.7 "/>
<path class="st12" d="M333,56.4c0,0.8-0.6,1.5-1,1.5c-0.4,0-0.9-0.7-0.9-1.7c0-0.8,0.6-1.5,1-1.5S333,55.5,333,56.4z"/>
<path class="st12" d="M323.9,56c0,0.8-0.6,1.5-1,1.5c-0.4,0-0.9-0.7-0.9-1.7c0-0.8,0.6-1.5,1-1.5S323.9,55,323.9,56z"/>
<path class="st12" d="M323.3,54.4l-1.9-0.7C321.4,53.7,322.3,55.4,323.3,54.4z"/>
<path class="st17" d="M326.7,57.4c-0.8,1.9-1.9,3.7-3.1,5.4c0.8,0.7,1.9,1,2.9,0.7L326.7,57.4z"/>
<path class="st12" d="M331,66.9c-0.4,0-0.9,0-1.3,0c-0.1,0-0.2-0.1-0.2-0.2c0-0.1,0.1-0.2,0.2-0.2l0,0c2,0.1,4-0.7,5.3-2.4
	c0.1-0.1,0.2-0.1,0.3-0.1l0,0c0.1,0.1,0.1,0.2,0,0.4C334.2,65.7,332.7,66.7,331,66.9z"/>
<path class="st15" d="M350.9,63.6c-1,1.8-2.7,3-4.5,3.4c-2.4,0.6-3.5-1.9-2.8-4.3c0.8-2.1,2.9-5.1,5.3-4.6c1.8,0.4,2.9,2.3,2.5,4.2
	C351.4,62.7,351.1,63.2,350.9,63.6z"/>
<path class="st12" d="M335.7,53.3c-0.1-0.1-0.2-0.1-0.2-0.2c-0.3-1.3-1.1-2.3-2.3-2.7c-0.2-0.1-0.4-0.4-0.3-0.6s0.3-0.5,0.6-0.4l0,0
	c1.4,0.6,2.5,1.8,2.9,3.4c0.1,0.2-0.1,0.6-0.3,0.6l0,0C335.9,53.5,335.8,53.5,335.7,53.3z"/>
<path class="st12" d="M320.8,51.4c-0.1,0-0.2,0-0.3-0.1c-0.2-0.1-0.2-0.5-0.1-0.7c0.9-1.3,2.3-2.1,3.9-2.1c0.2,0,0.4,0.2,0.4,0.5
	l0,0c0,0.2-0.2,0.5-0.4,0.5l0,0c-1.2,0-2.3,0.7-3,1.8C321.1,51.3,321,51.4,320.8,51.4z"/>
<path class="st7" d="M328,387.8c-0.2-0.4-0.3-0.8-0.2-1.2c0-0.4,0.2-0.6,0.6-0.7c1.2-0.6,4.1,1.5,4.4,1.8c0.1,0,0.1,0.1,0.1,0.2
	s-0.1,0.2-0.2,0.2c-1.3,0.4-3.6,0.7-4.5-0.1C328.1,387.9,328,387.8,328,387.8z M332,387.7c-1.2-0.8-2.9-1.7-3.5-1.4
	c-0.1,0-0.2,0.2-0.2,0.4c-0.1,0.4,0,0.7,0.2,1C328.9,388.1,330.2,388.1,332,387.7L332,387.7z"/>
<path class="st7" d="M331.4,386.9c-0.7-0.7-1.1-1.8-1.1-2.9c0.1-0.4,0.4-0.7,0.9-0.7c0.3-0.1,0.8,0,1,0.4c1,1.1,0.9,4.2,0.9,4.3
	s-0.1,0.1-0.1,0.2c-0.1,0-0.1,0-0.2,0C332,387.7,331.7,387.3,331.4,386.9z M331.8,384l-0.1-0.1c-0.1-0.1-0.4-0.2-0.7-0.2
	c-0.3,0-0.3,0.2-0.4,0.4c-0.2,0.7,0.9,2.5,1.8,3.3C332.5,386.2,332.2,385.1,331.8,384z"/>
<path class="st18" d="M346.5,155.3l0.7,3.9c0.1,0.4-0.2,0.6-0.7,0.6l-41.5-1.4c-0.3,0-0.7-0.2-0.7-0.5V154c0-0.2,0.3-0.5,0.8-0.5
	l40.8,1.4C346.2,154.8,346.4,155,346.5,155.3z"/>
<path class="st9" d="M340.5,160h1.1c0.2,0,0.4-0.1,0.4-0.2v-5.1c0-0.1-0.2-0.2-0.4-0.2h-1.1c-0.2,0-0.4,0.1-0.4,0.2v5.1
	C340.2,159.9,340.3,160,340.5,160z"/>
<path class="st19" d="M340.5,160h1.1c0.2,0,0.4-0.1,0.4-0.2v-5.1c0-0.1-0.2-0.2-0.4-0.2h-1.1c-0.2,0-0.4,0.1-0.4,0.2v5.1
	C340.2,159.9,340.3,160,340.5,160z"/>
<path class="st9" d="M308,158.9h1.1c0.2,0,0.4-0.1,0.4-0.2v-5.1c0-0.1-0.2-0.2-0.4-0.2H308c-0.2,0-0.4,0.1-0.4,0.2v5.1
	C307.7,158.7,307.8,158.9,308,158.9z"/>
<path class="st19" d="M308,158.9h1.1c0.2,0,0.4-0.1,0.4-0.2v-5.1c0-0.1-0.2-0.2-0.4-0.2H308c-0.2,0-0.4,0.1-0.4,0.2v5.1
	C307.7,158.7,307.8,158.9,308,158.9z"/>
<path class="st9" d="M324.3,159.4h1.1c0.2,0,0.4-0.1,0.4-0.2v-5.1c0-0.1-0.2-0.2-0.4-0.2h-1.1c-0.2,0-0.4,0.1-0.4,0.2v5.1
	C323.9,159.3,324.1,159.4,324.3,159.4z"/>
<path class="st19" d="M324.3,159.4h1.1c0.2,0,0.4-0.1,0.4-0.2v-5.1c0-0.1-0.2-0.2-0.4-0.2h-1.1c-0.2,0-0.4,0.1-0.4,0.2v5.1
	C323.9,159.3,324.1,159.4,324.3,159.4z"/>
<path class="st19" d="M356.3,97.1c1.5,6.9,2.8,13.8,3.6,20.8c0.4,3.6,0.9,7,1.2,10.6c0.3,3.7,0.4,7.5,0.2,11.2c-0.1,1-0.1,2-0.3,3.1
	c-0.1,0.5-0.2,1.1-0.3,1.7l-0.2,1c-0.1,0.4-0.2,0.8-0.3,1.2c-0.4,1.2-1.1,2.1-1.9,3c-0.7,0.7-1.4,1.2-2.3,1.7
	c-1.2,0.6-2.4,1-3.8,1.1c-2,0.2-3.9,0.1-5.9-0.1c-1.8-0.2-3.4-0.6-5.2-1.1c-6.4-1.7-12.7-4.2-18.8-7.1c-1.4-0.7-2-2.5-1.4-3.9
	c0.6-1.3,1.9-2,3.1-1.7h0.1c6.1,1.4,12.4,2.7,18.5,3.4c1.5,0.1,3,0.2,4.4,0.4c1.2,0,2.5,0,3.8-0.2c0.3,0,0.6-0.1,0.9-0.4
	c0,0-0.1,0-0.3,0.2c-0.2,0.2-0.4,0.5-0.6,0.8c-0.1,0.2,0,0,0,0v-0.4l0.1-0.8c0-0.6,0.1-1.3,0.1-2.1c0-3.2-0.3-6.3-0.7-9.5
	c-0.4-3.3-0.9-6.7-1.3-10c-1.1-6.7-2.3-13.4-3.5-20v-0.1c-0.6-3.3,1.4-6.4,4.5-7C352.8,92.1,355.6,94,356.3,97.1L356.3,97.1z"/>
<path class="st12" d="M316.1,129.8l-3.3-0.6c-1.1-0.2-2.1,0.6-2.3,1.8l0,0l-0.8,5.4c-0.1,1,0.3,1.9,1.2,2.3l6,2.6c0,0,4.9,4,8.7,2.1
	V139l-4.9-6.3C319.5,131.3,317.9,130.2,316.1,129.8z"/>
<path class="st12" d="M332.3,54.9l-1.9-0.7C330.5,54.2,331.4,55.8,332.3,54.9z"/>
<path class="st7" d="M340.4,64.1l1.9,4.2c0.1,0.2,0.2,0.6,0.1,1c-0.2,2.3,3.4,10.9-16.5,10c-5.9-0.2-6.5-12.3-6-15.9
	c0.1-0.6,0.6-1.2,1.1-1.3l4.3-1c0.2,0,0.3,0,0.6,0l13.4,2.4C339.8,63.3,340.2,63.6,340.4,64.1z"/>
</svg>
