<?xml version="1.0" encoding="utf-8"?>
<!-- Generator: Adobe Illustrator 25.1.0, SVG Export Plug-In . SVG Version: 6.00 Build 0)  -->
<svg version="1.1" id="Layer_1" xmlns="http://www.w3.org/2000/svg" xmlns:xlink="http://www.w3.org/1999/xlink" x="0px" y="0px"
	 viewBox="0 0 500 500" style="enable-background:new 0 0 500 500;" xml:space="preserve">
<style type="text/css">
	.st0{fill:#EBEBEB;}
	.st1{fill:#E6E6E6;}
	.st2{fill:#F5F5F5;}
	.st3{fill:#FF4367;}
	.st4{opacity:0.6;enable-background:new    ;}
	.st5{fill:#F7D0D8;}
	.st6{fill:#FFFFFF;}
	.st7{opacity:0.4;}
	.st8{opacity:0.6;}
	.st9{opacity:0.6;fill:#FFFFFF;enable-background:new    ;}
	.st10{fill:#E4897B;}
	.st11{fill:#263238;}
	.st12{opacity:0.2;fill:#FFFFFF;enable-background:new    ;}
	.st13{opacity:0.2;enable-background:new    ;}
	.st14{opacity:0.3;fill:#FFFFFF;enable-background:new    ;}
	.st15{fill:#DE5753;}
	.st16{fill:#407BFF;}
	.st17{opacity:0.3;enable-background:new    ;}
	.st18{opacity:0.5;enable-background:new    ;}
	.st19{fill:#EEC1BB;}
	.st20{opacity:0.6;fill:#F7D0D8;enable-background:new    ;}
	.st21{fill:#F4828B;}
	.st22{fill:none;stroke:#263238;stroke-width:0.5;stroke-linecap:round;stroke-linejoin:round;}
	.st23{fill:#D4827D;}
	.st24{fill:none;stroke:#263238;stroke-width:0.7247;stroke-linecap:round;stroke-linejoin:round;}
	.st25{fill:none;stroke:#263238;stroke-width:0.708;stroke-linecap:round;stroke-linejoin:round;}
</style>
<g id="freepik--background-complete--inject-32">
	<rect x="449.3" y="454.1" class="st0" width="38.5" height="0.3"/>
	<rect x="339.7" y="457.6" class="st0" width="10.1" height="0.3"/>
	<rect x="425.8" y="442" class="st0" width="22.3" height="0.3"/>
	<rect x="26" y="444.2" class="st0" width="50.2" height="0.3"/>
	<rect x="86.5" y="444.2" class="st0" width="7.3" height="0.3"/>
	<rect x="117.8" y="449.7" class="st0" width="108.9" height="0.3"/>
	<path class="st0" d="M240.4,374.9H16c-3.6,0-6.6-3.4-6.6-7.4V13.4c0-4,3-7.4,6.6-7.4h224.4c3.7,0,6.6,3.4,6.6,7.4l0,0v354.1
		C247,371.5,244.1,374.9,240.4,374.9z M16,6.2c-3.5,0-6.4,3.1-6.4,7.2v354.1c0,3.9,2.8,7.2,6.4,7.2h224.4c3.5,0,6.4-3.1,6.4-7.2
		V13.4c0-3.9-2.8-7.2-6.4-7.2H16z"/>
	<path class="st0" d="M491.7,374.9H267.4c-3.7,0-6.6-3.4-6.6-7.4V13.4c0-4,3-7.4,6.6-7.4h224.4c3.6,0,6.6,3.3,6.6,7.4v354.1
		C498.4,371.5,495.5,374.9,491.7,374.9z M267.4,6.2c-3.5,0-6.4,3.1-6.4,7.2v354.1c0,3.9,2.8,7.2,6.4,7.2h224.4
		c3.5,0,6.4-3.1,6.4-7.2V13.4c0-3.9-2.8-7.2-6.4-7.2H267.4z"/>
	<polygon class="st1" points="90.7,135.4 40.2,135.4 40.2,212.9 62.8,212.9 62.8,433.2 68.2,433.2 68.2,212.9 90.7,212.9 	"/>
	<path class="st1" d="M139.4,215.3c3.5-7.6,6.9-15.4,6-17c-1.5-3.4-3-5-10.5-6c-4.9-0.7-5.8-3.8-5.8-6c0-1,0.3-2.1,1-2.7
		c6.9-6.9,7.2-23-4.3-25.1v-0.3c-0.3,0-0.8,0-1.2,0h-0.3c-0.3,0-0.7,0-1.2,0v0.1c-11.5,2.1-11.2,18-4.3,25.1c0.7,0.7,1,1.7,1,2.7
		c-0.1,2.1-1,5.3-5.8,6c-7.4,1-8.9,2.6-10.5,6c-0.7,1.7,2.6,9.5,6,17c4.3,9.1,4.6,19.8,0.9,29.4c-4.1,10.3-6.5,21.3-7.1,32.5
		c-0.1,2.1,1.4,3.8,3.3,3.9h0.1h13.8v148.7h-8.7c-1.7,0-3.1,1.6-3.1,3.5h31.3c0-2-1.4-3.5-3.1-3.5h-8.7V281.1h13.7
		c1.9,0,3.4-1.7,3.4-3.8v-0.1c-0.6-11.2-3-22.2-7.1-32.5C134.8,235.3,135.1,224.5,139.4,215.3z"/>
	<path class="st1" d="M401.3,429.7c-1.7,0-3.1,1.6-3.1,3.5h31.3c0-2-1.4-3.5-3.1-3.5h-8.7v-59.8h6.7v-80.1h-6.7v-24H213v24h-4.6
		v80.1h4.6v59.8h-8.7c-1.7,0-3.1,1.6-3.1,3.5h31.1c0-2-1.4-3.5-3.1-3.5l0,0h-8.7v-59.8H410v59.8H401.3z M220.5,290v-16H410v16H220.5
		z"/>
	<polygon class="st1" points="471.9,135.4 421.3,135.4 421.3,212.9 443.9,212.9 443.9,433.2 449.3,433.2 449.3,212.9 471.9,212.9 	
		"/>
	<polygon class="st1" points="384.1,65.2 384.1,37.5 379.8,37.5 379.8,65.2 273.7,65.2 273.7,37.5 269.4,37.5 269.4,65.2 
		261.4,65.2 261.4,127.9 392.2,127.9 392.2,65.2 	"/>
</g>
<g id="freepik--Shadow--inject-32">
	<ellipse id="freepik--path--inject-32" class="st2" cx="255.5" cy="477.2" rx="225.3" ry="14.7"/>
</g>
<g id="freepik--Divider--inject-32">
	<path class="st3" d="M110.6,336c-10.2,0-20.5-0.9-30.6-2.7c-27.5-5.1-45.7-15-46.5-15.4l3.1-7c0.7,0.4,71.7,38.7,143.9,0l3,7
		C160.7,330,135.8,336.2,110.6,336z"/>
	<path class="st3" d="M258.1,336c-10.2,0-20.5-0.9-30.4-2.7c-27.7-5.1-45.7-15-46.5-15.4l3-7c0.7,0.4,71.7,38.7,143.9,0l3,7
		C308.3,330,283.4,336.2,258.1,336z"/>
	<path class="st3" d="M403.9,336c-10.2,0-20.5-0.9-30.4-2.7c-27.5-5.1-45.7-15-46.5-15.4l3.1-7c0.7,0.4,71.7,38.7,143.9,0l3,7
		C454,330,429.1,336.2,403.9,336z"/>
	<g class="st4">
		<path class="st5" d="M111.3,336c-10.2,0-20.5-0.9-30.6-2.7c-27.5-5.1-45.7-15-46.4-15.4l3.1-7c0.7,0.4,71.7,38.7,143.9,0l3,7
			C161.4,330,136.5,336.2,111.3,336z"/>
	</g>
	<g class="st4">
		<path class="st6" d="M257.5,336c-10.2,0-20.5-0.9-30.4-2.7c-27.7-5.1-45.7-15-46.5-15.4l3-7c0.7,0.4,71.7,38.7,143.9,0l3,7
			C307.7,330,282.7,336.2,257.5,336z"/>
	</g>
	<g class="st7">
		<path class="st5" d="M403.9,336c-10.2,0-20.5-0.9-30.4-2.7c-27.5-5.1-45.7-15-46.5-15.4l3.1-7c0.7,0.4,71.7,38.7,143.9,0l3,7
			C454,330,429.1,336.2,403.9,336z"/>
	</g>
	<rect x="30.1" y="303.9" class="st3" width="10.2" height="148.9"/>
	<polygon class="st3" points="51.2,451.2 40.3,447.3 30.1,447.3 19.1,451.2 19.1,452.8 51.2,452.8 	"/>
	<rect x="176.9" y="303.9" class="st3" width="10.3" height="148.9"/>
	<polygon class="st3" points="198.1,451.2 187.2,447.3 176.9,447.3 166,451.2 166,452.8 198.1,452.8 	"/>
	<rect x="323.8" y="303.9" class="st3" width="10.3" height="148.9"/>
	<polygon class="st3" points="345,451.2 334.1,447.3 323.8,447.3 312.9,451.2 312.9,452.8 345,452.8 	"/>
	<rect x="470.7" y="303.9" class="st3" width="10.3" height="148.9"/>
	<polygon class="st3" points="491.9,451.2 480.9,447.3 470.7,447.3 459.9,451.2 459.9,452.8 491.9,452.8 	"/>
	<g class="st4">
		<rect x="30.1" y="303.5" class="st5" width="10.2" height="148.9"/>
		<polygon class="st5" points="51.2,451.4 40.3,447.4 30.1,447.4 19.1,451.4 19.1,452.9 51.2,452.9 		"/>
	</g>
	<g class="st8">
		<rect x="176.9" y="303.9" class="st9" width="10.3" height="148.9"/>
		<polygon class="st9" points="197.4,451.4 186.6,447.4 176.3,447.4 165.4,451.4 165.4,452.9 197.4,452.9 		"/>
	</g>
	<g class="st4">
		<rect x="323.8" y="303.5" class="st5" width="10.3" height="148.9"/>
		<polygon class="st5" points="345,450.8 334.1,446.9 323.8,446.9 312.9,450.8 312.9,452.4 345,452.4 		"/>
	</g>
	<g class="st8">
		<rect x="470" y="302.6" class="st9" width="10.3" height="148.9"/>
		<polygon class="st6" points="491.9,450.8 480.9,446.9 470.7,446.9 459.9,450.8 459.9,452.4 491.9,452.4 		"/>
	</g>
</g>
<g id="freepik--character-2--inject-32">
	<g id="freepik--group--inject-32">
		<path class="st10" d="M469.2,158.3c0,0,10.5,28.1,10.5,35.7c0,7.7-7.6,40.8-7.6,40.8c0.6,1.2,0.8,2.5,0.9,3.8
			c0,1.8-0.1,10.6-0.9,11.6c-1.4,2-10.1,7.3-10.7,4.6c-0.6-2.7,1.4-16.3,1.5-17.9c0.1-1.2,2.2-2.7,2.2-2.7s6-37.4,5.3-40.2
			s-11.4-25.7-11.4-25.7L469.2,158.3z"/>
		<path class="st10" d="M396.6,157.2c0,0-10.7,18.7-13.5,22c-2.8,3.4-27.5,17.5-27.5,17.5s-4-3.1-10.9,5.5c-7,8.6-4.3,11.6-4.3,11.6
			s9.9,1.4,10.8,1.3c0.9-0.1,7-9.8,7.2-12.3c0,0,26.4-10.7,30-13.2c3.6-2.5,18.4-23.4,18.4-23.4L396.6,157.2z"/>
		<path class="st11" d="M408.4,136.8c-7.6,1.4-18.5,26-18.5,26l11.2,12.4l9.5-7.6L408.4,136.8z"/>
		<path class="st12" d="M410.6,167.6l-1.6,1.3l-7.9,6.3l-3.6-4l-7.6-8.4c0,0,10.9-24.5,18.5-26L410.6,167.6z"/>
		<polygon class="st11" points="388.2,163.3 389.9,160 402.8,175 401.1,177.1 		"/>
		<path class="st13" d="M409,168.9l-7.9,6.3l-3.6-4c1.6-9.9,9.5-15.5,9.5-15.5L409,168.9z"/>
		<path class="st11" d="M448.3,464.8H460c0.3,0,0.7,0.3,0.8,0.8l1.9,9.7c0.1,0.9-0.3,1.7-1.2,2l0,0c-0.1,0-0.2,0-0.3,0
			c-3.8,0-6.6-0.4-11.4-0.4c-2.9,0-11.9,0.4-15.9,0.4s-4.6-4.6-2.9-5c7.4-1.8,13.1-4.3,15.5-6.8
			C447.1,465.1,447.7,464.8,448.3,464.8z"/>
		<path class="st11" d="M398.3,464.5H410c0.3,0,0.7,0.3,0.8,0.8l1.9,9.7c0.1,0.9-0.3,1.7-1,2l0,0c-0.1,0-0.2,0-0.3,0
			c-3.8,0-6.6-0.3-11.4-0.3c-2.9,0-11.9,0.4-15.9,0.4s-4.6-4.6-2.9-5c7.4-1.8,13.1-4.4,15.5-6.8
			C397.1,464.7,397.7,464.5,398.3,464.5z"/>
		<path class="st11" d="M454.6,219.8h-51.5c-4.9,30-20.2,151.7-9.2,246.5h17.4c0,0-1.6-143.6,13.8-190.1c1.7,24.8,19.8,190,19.8,190
			h17.8c0,0-2.7-62.1-5.3-120.8C455.6,308.2,454.7,227.3,454.6,219.8z"/>
		<path class="st13" d="M425,276c-2.6,8.1-4.4,16.6-5.7,25.1c-1.4-22,4.3-45.5,4.3-45.5L425,276z"/>
		<polygon points="402.6,220.4 454.4,220.4 454.4,227.3 402,226.7 		"/>
		<rect x="436" y="217.3" class="st11" width="1.9" height="12.3"/>
		<rect x="409.8" y="217.3" class="st11" width="1.9" height="12.3"/>
		<rect x="416.7" y="219.3" class="st6" width="9.5" height="7.7"/>
		<path class="st11" d="M454.7,221.6c1.4-33.1,10-79.8,10-79.8c-24.1-6.5-56.4-4.8-56.4-4.8c-6.3,25.3-6.2,66-5.7,84.8L454.7,221.6z
			"/>
		<path class="st12" d="M454.7,221.6c0.5-10.7,1.6-22.7,3-34.3c0.8-6.5,1.7-12.9,2.6-18.7c2.3-15.5,4.4-27,4.4-27
			c-24.1-6.5-56.4-4.8-56.4-4.8c-6.3,25.3-6.2,66-5.7,84.8H454.7z"/>
		<path class="st13" d="M460.2,168.6c-0.8,5.7-1.7,12.1-2.6,18.7c-3.3-6.9-3.6-15.1-1-22.4L460.2,168.6z"/>
		<path class="st11" d="M425.4,141.1l1.3,7.2c0,0-7.4,34.8-9.1,52.8l2.7,3l4.3-3c0,0,0.3-36.8,4.2-52.2l6.7-6.3l-5.3-2L425.4,141.1z
			"/>
		<path class="st10" d="M445.6,138c-4.4,4.6-15.3,2.9-15.3,2.9s-6.9-2.1-5.3-4.4c4.1-0.8,5.9-2.9,6.7-5.5c0.5-1.7,0.6-3.4,0.5-5.1
			c-0.1-0.9-0.2-2-0.3-2.9l13.5-11.2C443.4,119.1,441.2,132.6,445.6,138z"/>
		<path class="st13" d="M442,118.7c-0.6,9.1-7.2,11.6-10.5,12.1c0.5-1.7,0.6-3.4,0.5-5.1L442,118.7z"/>
		<path class="st11" d="M443.6,132.2l-12.9,6.5l-0.7-5.2l-4.8,1.8c-1.7,0.7-2.8,2.6-2.6,4.6l0.6,5.7l6.5-4l3.3,5.2l15.5-8.5
			L443.6,132.2z"/>
		<path class="st14" d="M443.6,132.2l-12.9,6.5l-0.7-5.2l-4.8,1.8c-1.7,0.7-2.8,2.6-2.6,4.6l0.6,5.7l6.5-4l3.3,5.2l15.5-8.5
			L443.6,132.2z"/>
		<path class="st11" d="M417.5,90.6c0,0-2,14.6,4.9,20.2c6.9,5.6,7-21.5,7-21.5L417.5,90.6z"/>
		<path class="st10" d="M442.3,122.4c-3,5-8.5,7-13.5,5.1c-3.1-1.2-5.8-3.7-7.4-6.9c-0.2-0.4-0.5-0.9-0.6-1.4
			c-3.4-8.9-4.4-24.5,4.1-30.3c6-4.2,13.8-2.1,17.5,4.6c1,2,1.7,4,1.9,6.3C445.3,110.2,446.2,116.3,442.3,122.4z"/>
		<path class="st11" d="M430.6,105.4c0.2,0.8-0.1,1.6-0.7,1.7s-1-0.5-1.2-1.3c-0.1-0.8,0.1-1.6,0.7-1.7S430.5,104.4,430.6,105.4z"/>
		<path class="st11" d="M422.2,106.9c0.1,0.8-0.1,1.6-0.7,1.7c-0.6,0.1-1-0.5-1.2-1.3c-0.1-0.8,0.1-1.6,0.7-1.7
			S422.1,106.1,422.2,106.9z"/>
		<path class="st15" d="M424.9,106.8c-0.5,2.7-1.4,5.3-2.4,7.8c1.2,0.7,2.6,0.7,3.7,0.1L424.9,106.8z"/>
		<path class="st11" d="M418.4,103.4c0.1,0,0.3,0,0.5-0.1c0.8-0.9,2-1.2,3.1-1c0.2,0.1,0.5-0.1,0.6-0.4c0-0.3-0.1-0.5-0.3-0.7l0,0
			c-1.4-0.4-2.9,0.1-4,1.2c-0.2,0.1-0.2,0.5-0.1,0.7l0,0l0,0C418.3,103.4,418.4,103.4,418.4,103.4z"/>
		<path class="st11" d="M431.8,101.2c0.1,0,0.1-0.1,0.2-0.1c0.1-0.3,0.1-0.5-0.1-0.7l0,0l0,0c-1.2-0.9-2.7-1-4.1-0.4
			c-0.2,0.1-0.3,0.4-0.2,0.7l0,0l0,0c0.1,0.3,0.3,0.4,0.6,0.3l0,0c1-0.5,2.2-0.3,3.3,0.4C431.5,101.3,431.7,101.2,431.8,101.2z"/>
		<path class="st11" d="M427.1,117.4c0.7,1,1.3,2.2,1.7,3.5l0.6-0.1c2.7-0.9,3.7-2.3,4-3.7c0.1-0.7,0.1-1.3,0-2
			c-0.1-0.4-0.2-0.7-0.3-1c-1.5,1.4-3.1,2.3-5,3C427.5,117.2,427.1,117.4,427.1,117.4z"/>
		<path class="st6" d="M428.1,117l0.6,1c2.6-0.8,4.3-1.8,4.9-3c-0.1-0.4-0.2-0.7-0.3-1C431.5,115.4,429.9,116.4,428.1,117z"/>
		<path class="st15" d="M429.5,120.6c2.7-0.9,3.7-2.3,4-3.7c-1,0.4-2,0.9-2.8,1.7C430,119.2,429.7,119.8,429.5,120.6z"/>
		<path class="st11" d="M435.5,92.8c0,0-20.7,8-18.2-7.7c0,0,11.2-7.4,20.9-5.3s8.9,13.3,8.9,13.3L435.5,92.8z"/>
		<path class="st11" d="M435.5,88.1v4.7c1.5,0.5,2.3,2.3,2,4.2c-0.9,4,1.6,9.8,4.5,11.7c0,0-0.1-1.7,1.2-1.4c1.3,0.3,1.9,9-0.1,13.4
			c0,0,3.3-4.2,4.4-13.7c1-8.7,0.6-15.8-1.4-18.8L435.5,88.1z"/>
		<path class="st3" d="M418.5,110.1c0,0,2.2,2.7,4.8,1.3c2.6-1.4,6.5-0.1,8.1-0.4c5.7-0.9,10.5-11.9,13.2-6.7c0,0-0.5-4.6-8.6,5.3
			c0,0,0.5,9,4.5,9.9c2.7-4.2,4.3-9,4.5-14.2c0.2,5.7-1.4,11.4-4.5,15.9c-7.6,10.6-16.5,6.9-16.5,6.9S417.1,124.3,418.5,110.1z"/>
		<path class="st10" d="M449.4,107.6c-0.7,2.5-2.2,4.7-4.3,5.9c-2.8,1.7-4.8-0.9-4.6-4.2c0.2-2.9,1.9-7.4,4.9-7.7
			C448.4,101.3,450.3,104.4,449.4,107.6z"/>
		<path class="st11" d="M464.7,141.6c4.5,2.6,12.3,31.3,12.3,31.3l-12.9,9.1l-8.4-12.7c0,0,0.6-12.7,3.4-18.9
			C460.4,147.2,462.2,144.1,464.7,141.6z"/>
		<path class="st12" d="M464.7,141.6c4.5,2.6,12.3,31.3,12.3,31.3l-12.9,9.1l-8.4-12.7c0,0,0.6-12.7,3.4-18.9
			C460.4,147.2,462.2,144.1,464.7,141.6z"/>
		<polygon class="st11" points="462.6,181.3 477.6,170.3 478.3,173.9 464.1,183.9 		"/>
		<path class="st6" d="M416,172.2l-8.7-1c-0.3,0-0.6-0.4-0.6-0.8l1.2-12.4c0-0.4,0.3-0.7,0.7-0.7l8.7,1c0.3,0,0.6,0.4,0.6,0.8
			l-1.2,12.4C416.7,171.9,416.3,172.2,416,172.2z"/>
		<polygon class="st3" points="409.9,165.8 410.5,159.6 415,160.1 414.4,166.3 		"/>
		<polygon class="st3" points="408.1,168.4 408.2,167.5 415.7,168.4 415.6,169.3 		"/>
		<polygon class="st3" points="409.2,170.2 409.3,169.2 414.5,169.9 414.4,170.8 		"/>
		<polygon class="st16" points="412.1,158.7 412.5,155 414,155.2 413.6,158.9 		"/>
		<polygon class="st17" points="412.1,158.7 412.5,155 414,155.2 413.6,158.9 		"/>
	</g>
</g>
<g id="freepik--dry-mat--inject-32">
	<polygon class="st11" points="339.6,471.7 339.2,471.7 339.2,411.2 336.1,411.2 336.1,471.7 335.7,471.7 329.9,474.8 345.4,474.8 	
		"/>
	<polygon class="st12" points="339.6,471.7 339.2,471.7 339.2,425.5 336.1,428.1 336.1,471.7 335.7,471.7 329.9,474.8 345.4,474.8 	
		"/>
	<path class="st3" d="M309.3,367.5h56.6c0.9,0,1.6,0.8,1.6,1.8v44.5c0,1-0.7,1.8-1.6,1.8h-56.6c-0.9,0-1.6-0.8-1.6-1.8v-44.5
		C307.7,368.3,308.5,367.5,309.3,367.5z"/>
	<path class="st6" d="M365.2,370.1V413H310v-42.9H365.2 M365.9,368.8h-56.5c-0.2,0-0.5,0.3-0.5,0.5l0,0v44.5c0,0.3,0.2,0.5,0.5,0.5
		l0,0h56.5c0.2,0,0.5-0.3,0.5-0.5l0,0v-44.5C366.4,369,366.1,368.8,365.9,368.8L365.9,368.8z"/>
	<path class="st6" d="M334.7,373.7l-2.2,7.6h-1.3l-1.6-5.6l-1.6,5.6h-1.3l-2.2-7.6h1.3l1.6,5.7l1.7-5.7h1.2l1.7,5.7l1.7-5.7H334.7z"
		/>
	<path class="st6" d="M335.8,373.7h1.3v7.6h-1.3V373.7z"/>
	<path class="st6" d="M344.4,376.5c0,1.7-1,2.6-2.9,2.6H340v2.2h-1.3v-7.4h2.8C343.3,373.7,344.4,374.8,344.4,376.5z M343.1,376.5
		c0-0.9-0.6-1.4-1.6-1.4h-1.4v3h1.4C342.6,377.9,343.1,377.4,343.1,376.5z"/>
	<path class="st6" d="M350.7,380.1v1.2h-5v-7.6h4.9v1.2h-3.6v2h3.3v1.2h-3.3v2.1H350.7z"/>
	<path class="st6" d="M330.7,384.6v7.6h-1.3v-3.3h-3.5v3.3h-1.2v-7.6h1.3v3.1h3.5v-3.1H330.7z"/>
	<path class="st6" d="M337.5,390.8v1.2h-5v-7.6h4.9v1.2h-3.6v2h3.3v1.2h-3.3v2.1H337.5z"/>
	<path class="st6" d="M343.2,392l-1.4-2.2h-1.7v2.2h-1.3v-7.6h2.8c1.7,0,2.9,1,2.9,2.6c0,1-0.6,2.1-1.4,2.3l1.5,2.5L343.2,392z
		 M341.6,385.7h-1.4v3h1.4c1,0,1.6-0.5,1.6-1.4C343.2,386.4,342.6,385.7,341.6,385.7z"/>
	<path class="st6" d="M350.9,390.8v1.2h-5v-7.6h4.9v1.2h-3.6v2h3.3v1.2h-3.3v2.1H350.9z"/>
	<polygon class="st6" points="340,404.7 340,396.2 335.2,396.2 335.2,404.7 331.8,404.7 337.7,411.2 343.3,404.7 	"/>
	<polygon class="st11" points="370.4,477.2 195.5,477.2 207.2,471.7 358.8,471.7 	"/>
	<polygon class="st18" points="358.8,471.7 302.7,471.7 296.9,477.2 370.4,477.2 	"/>
	<g class="st7">
		<polygon class="st6" points="219.2,472.8 214.7,476.3 217.2,476.3 221.7,472.8 		"/>
		<polygon class="st6" points="225.2,472.8 220.6,476.3 223.1,476.3 227.6,472.8 		"/>
		<polygon class="st6" points="231.2,472.8 226.6,476.3 229,476.3 233.5,472.8 		"/>
		<polygon class="st6" points="237.1,472.8 232.5,476.3 234.9,476.3 239.6,472.8 		"/>
		<polygon class="st6" points="243.1,472.8 238.5,476.3 240.9,476.3 245.5,472.8 		"/>
		<polygon class="st6" points="249,472.8 244.5,476.3 246.9,476.3 251.4,472.8 		"/>
		<polygon class="st6" points="254.9,472.8 250.4,476.3 252.8,476.3 257.4,472.8 		"/>
		<polygon class="st6" points="260.8,472.8 256.3,476.3 258.8,476.3 263.3,472.8 		"/>
		<polygon class="st6" points="266.8,472.8 262.2,476.3 264.7,476.3 269.2,472.8 		"/>
		<polygon class="st6" points="272.7,472.8 268.2,476.3 270.6,476.3 275.1,472.8 		"/>
		<polygon class="st6" points="278.6,472.8 274.1,476.3 276.5,476.3 281.1,472.8 		"/>
		<polygon class="st6" points="284.5,472.8 280,476.3 282.5,476.3 287,472.8 		"/>
	</g>
</g>
<g id="freepik--wet-mat--inject-32">
	<polygon class="st11" points="188.6,471.7 188.1,471.7 188.1,411.2 185.1,411.2 185.1,471.7 184.5,471.7 178.7,474.8 194.4,474.8 	
		"/>
	<polygon class="st12" points="188.6,471.7 188.1,471.7 188.1,425.5 185.1,428.1 185.1,471.7 184.5,471.7 178.7,474.8 194.4,474.8 	
		"/>
	<path class="st3" d="M158.2,367.5h56.6c0.9,0,1.6,0.8,1.6,1.8v44.5c0,1-0.7,1.8-1.6,1.8h-56.6c-0.9,0-1.6-0.8-1.6-1.8v-44.5
		C156.6,368.3,157.4,367.5,158.2,367.5z"/>
	<path class="st6" d="M214.1,370.1V413h-55.2v-42.9H214.1 M214.8,368.8h-56.5c-0.2,0-0.5,0.3-0.5,0.5l0,0v44.5
		c0,0.3,0.2,0.5,0.5,0.5l0,0h56.5c0.2,0,0.5-0.3,0.5-0.5l0,0v-44.5C215.3,369,215.1,368.8,214.8,368.8L214.8,368.8z"/>
	<path class="st6" d="M164.2,380.5l0.5-1c0.6,0.5,1.4,0.8,2.2,0.8c1,0,1.5-0.4,1.5-1c0-1.6-4-0.5-4-3.4c0-1.2,0.8-2.2,2.7-2.2
		c0.8,0,1.5,0.3,2.2,0.7l-0.3,1c-0.6-0.4-1.2-0.5-1.9-0.7c-1,0-1.4,0.5-1.4,1c0,1.6,4,0.5,4,3.3c0,1.2-0.9,2.2-2.7,2.2
		C165.8,381.4,164.9,381,164.2,380.5z"/>
	<path class="st6" d="M175.1,379.5h-3.4l-0.7,1.7h-1.3l3-7.6h1.3l3,7.6h-1.3L175.1,379.5z M174.6,378.4l-1.3-3.3l-1.3,3.3H174.6z"/>
	<path class="st6" d="M183.8,373.7v7.6h-1l-3.7-5.1v5.1h-1.3v-7.6h1l3.7,5.1v-5.1H183.8z"/>
	<path class="st6" d="M185.7,373.7h1.3v7.6h-1.3V373.7z"/>
	<path class="st6" d="M190,374.9h-2.2v-1.2h5.7v1.2h-2.2v6.4H190V374.9z"/>
	<path class="st6" d="M194.4,373.7h1.3v7.6h-1.3V373.7z"/>
	<path class="st6" d="M202.6,380.1v1.2h-5.7v-0.9l4-5.3h-3.8v-1.2h5.5v0.9l-4,5.3L202.6,380.1L202.6,380.1z"/>
	<path class="st6" d="M208.8,380.1v1.2h-5v-7.6h4.9v1.2h-3.6v2h3.3v1.2h-3.3v2.1H208.8z"/>
	<path class="st6" d="M179.6,384.6v7.6h-1.3v-3.3h-3.5v3.3h-1.2v-7.6h1.3v3.1h3.5v-3.1H179.6z"/>
	<path class="st6" d="M186.5,390.8v1.2h-5v-7.6h4.9v1.2h-3.6v2h3.3v1.2h-3.3v2.1H186.5z"/>
	<path class="st6" d="M192.2,392l-1.4-2.2H189v2.2h-1.3v-7.6h2.8c1.7,0,2.8,1,2.8,2.6c0,1-0.6,2.1-1.4,2.3l1.5,2.5L192.2,392z
		 M190.5,385.7h-1.4v3h1.4c1,0,1.6-0.5,1.6-1.4C192.2,386.4,191.6,385.7,190.5,385.7z"/>
	<path class="st6" d="M199.8,390.8v1.2h-5v-7.6h4.9v1.2h-3.6v2h3.3v1.2h-3.3v2.1H199.8z"/>
	<polygon class="st6" points="188.9,404.7 188.9,396.2 184.2,396.2 184.2,404.7 180.8,404.7 186.6,411.2 192.3,404.7 	"/>
	<polygon class="st3" points="206.6,464.8 162.7,464.8 98.3,464.8 54.4,464.8 36.8,477.2 89.6,477.2 171.5,477.2 224.1,477.2 	"/>
	<polygon class="st13" points="224.1,477.2 167.1,477.2 162.7,464.8 206.6,464.8 	"/>
	<g class="st7">
		<polygon class="st6" points="66.8,465.8 59.1,471.7 60.4,469.1 64.5,465.8 		"/>
		<polygon class="st6" points="72.3,465.8 58.8,476.3 57,476.3 57.4,475.6 70,465.8 		"/>
		<polygon class="st6" points="64.2,476.3 61.9,476.3 75.5,465.8 77.8,465.8 		"/>
		<polygon class="st6" points="69.7,476.3 67.5,476.3 81,465.8 83.3,465.8 		"/>
		<polygon class="st6" points="75.3,476.3 72.9,476.3 86.5,465.8 88.9,465.8 		"/>
		<polygon class="st6" points="80.7,476.3 78.5,476.3 92,465.8 94.3,465.8 		"/>
		<polygon class="st6" points="86.3,476.3 84,476.3 97.6,465.8 99.8,465.8 		"/>
		<polygon class="st6" points="91.8,476.3 89.6,476.3 103,465.8 105.4,465.8 		"/>
		<polygon class="st6" points="97.4,476.3 95,476.3 108.6,465.8 110.8,465.8 		"/>
		<polygon class="st6" points="102.8,476.3 100.6,476.3 114.1,465.8 116.4,465.8 		"/>
		<polygon class="st6" points="108.4,476.3 106.1,476.3 119.7,465.8 121.9,465.8 		"/>
		<polygon class="st6" points="113.9,476.3 111.6,476.3 125.1,465.8 127.4,465.8 		"/>
		<polygon class="st6" points="119.4,476.3 117.1,476.3 130.7,465.8 132.9,465.8 		"/>
		<polygon class="st6" points="124.9,476.3 122.7,476.3 136.2,465.8 138.5,465.8 		"/>
		<polygon class="st6" points="130.5,476.3 128.1,476.3 141.7,465.8 143.9,465.8 		"/>
		<polygon class="st6" points="148.8,465.8 148.6,466.6 135.9,476.3 133.7,476.3 147.2,465.8 		"/>
		<polygon class="st6" points="146.7,470.4 145.6,473.1 141.5,476.3 139.2,476.3 		"/>
	</g>
</g>
<g id="freepik--character-1--inject-32">
	<path class="st11" d="M139.5,234.5c4.5,2.5,9.3,4.3,14.3,5.3c8.4,1.8,15.7-3.5,15.7-3.5l2-0.3c0,0,5.7,30.1,0.9,33.8
		c-4.8,3.7-30.4,3.8-34.6-0.3C133.6,265.6,139.5,234.5,139.5,234.5z"/>
	<path class="st12" d="M139.5,234.5c4.5,2.5,9.3,4.3,14.3,5.3c8.4,1.8,15.7-3.5,15.7-3.5l2-0.3c0,0,5.7,30.1,0.9,33.8
		c-4.8,3.7-30.4,3.8-34.6-0.3C133.6,265.6,139.5,234.5,139.5,234.5z"/>
	<path class="st11" d="M151,124.7c0,0,12.8-1.7,18.7,6.5s1.6,27,5.8,36.8c4.2,9.8,0.1,21.9-16.3,24c-16.4,2.1-29.4-4.2-33.6-17.9
		c-4.2-13.7,4.9-18.4,6.9-28.8C134.5,134.8,143.3,120.2,151,124.7z"/>
	<path class="st19" d="M172.8,208.3c-0.7-2.6-1.2-5.5-1-8.2c0,0,3.8-4.3,4.8-3.4c0.9,0.9,2,8,2.2,9.1c0.2,1.2-1,2.7-1,2.7l2,13.6
		l-4.9,1.7l-0.6-14.1C174.3,209.7,173.6,211.3,172.8,208.3z"/>
	<path class="st3" d="M173.9,215.5c0.2,2.2-0.5,4.6-1.7,6.3c-1.7,2.6-3.6,0.7-5.9-15c-2.3-15.7-5.1-23-5.1-23l-5.7,32.5
		c0,0,5.7,19.8,18.5,16.4c8-2.1,7.2-12.4,5.6-19.8L173.9,215.5z"/>
	<path class="st9" d="M173.9,215.5c0.2,2.2-0.5,4.6-1.7,6.3c-1.7,2.6-3.6,0.7-5.9-15c-2.3-15.7-5.1-23-5.1-23l-5.7,32.5
		c0,0,5.7,19.8,18.5,16.4c8-2.1,7.2-12.4,5.6-19.8L173.9,215.5z"/>
	<path class="st3" d="M160,246c0,0-34.4,6.5-54.6-5.9l15.5-56.8l36.1,8.5L160,246z"/>
	<path class="st20" d="M130.9,247.8c0,0-34.4,6.5-54.6-5.9l15.5-56.8l36.1,8.5L130.9,247.8z"/>
	<path class="st11" d="M111.9,232.8l35.8-1.8c0,0-0.2-21.5,13.6-47.2c-4.4-2.3-8.8-4.4-13.5-6.3c-5-2-10.1-3.7-15.3-5
		c-6.9-1.6-15.1-2.6-15.1-2.6S110.1,193.8,111.9,232.8z"/>
	<path class="st19" d="M102.5,445.5l5.5,3.7c2.6-3.9,5.3-7.6,8.3-11l0,0c1.6-1.8,3.3-3.9,5-6.1c3.5-4.4,7.2-9.5,11-15l3.5-5
		c13.6-19.2,28.4-41.9,33.8-57.1c1.7-4.7,2.6-8.7,2.2-11.7c-1.2-9.1-4.3-22.8-7.9-36.1c-5.5-20.2-11.6-39.5-11.6-39.5L137,296.4
		c0,0,4.6,12.5,8.9,25.7c4.2,13,7.9,26.9,6.5,30.5c-0.1,0.4-0.3,0.8-0.5,1.2c-2.6,5.9-9.5,19.2-17.4,33.8c-0.8,1.4-1.6,3-2.4,4.4
		c-4.3,7.8-8.7,15.9-12.8,23.2c-1.6,2.9-3.1,5.7-4.6,8.4C107.7,436.4,102.5,445.5,102.5,445.5z"/>
	<path class="st13" d="M136,412c-7.2,10.2-14.1,19.3-19.2,26.1c-0.7-4-1.5-9-2.1-14.4c5.9-10.7,13.2-23.9,19.8-36.1
		C134.4,395.8,134.9,403.9,136,412z"/>
	<path class="st19" d="M108.9,328.5c1.9,14.4,4.5,27.4,6.3,35.2c1,4.7,1.7,7.4,1.7,7.4c0,14.7,0.8,29.6,2.3,44.2
		c0.6,5.7,1.2,11.4,1.9,16.6c2.3,19.2,4.9,32.9,4.9,32.9l6.5-0.9l-0.2-46.8l-0.1-24.8l-0.2-33.9l-0.1-5.9l-0.3-25.7l-0.5-38
		l-22.5-11.4C105.5,291.8,106.6,311.1,108.9,328.5z"/>
	<path class="st11" d="M102.9,441.4c0.7-0.5,6.3,8.9,6.3,8.9s-1.3,9.8,1.3,16.2s-2.3,5.7-6.5-0.3l-10.1-14.9
		C91.1,447.2,96.1,447.1,102.9,441.4z"/>
	<path class="st16" d="M111.2,457.5c-1.3-0.4-2.1-4.4-2.2-5.2v-0.1l0,0c0,0,0,0,0-0.1l0,0c0,0,0,0,0.1-0.1l0,0h0.1
		c0.1,0,2.4-0.9,3.7,0c0.3,0.3,0.7,0.7,0.8,1.2c0.1,0.4,0,0.9-0.2,1.2c-0.5,0.3-1.3,0-2.1-0.4c0.6,0.7,0.9,1.3,1.2,2.2
		c0.1,0.7-0.3,1.4-0.9,1.4l0,0H111.2z M111.3,456.8c0,0,0.2,0,0.5-0.3c0.1-0.1,0.1-0.3,0.1-0.5c-0.1-0.9-1.4-2.3-2.2-3.1
		C110,454.8,110.7,456.7,111.3,456.8L111.3,456.8z M109.8,452.3c1.4,0.9,2.8,1.7,3.3,1.4c0.1-0.1,0.1-0.4,0-0.5
		c0-0.4-0.2-0.7-0.5-0.8c-0.3-0.3-0.8-0.3-1.2-0.3C110.8,452.1,110.2,452.1,109.8,452.3z"/>
	<path class="st11" d="M123.7,460.1c0-0.9,10.1-0.1,10.1-0.1s6.2,7,12.2,8.6c6,1.6,2.7,5.6-4.1,5.6h-16.6
		C120.5,474.2,123.5,469.6,123.7,460.1z"/>
	<path class="st16" d="M134.9,461.4C134.9,461.4,134.9,461.3,134.9,461.4L134.9,461.4c-0.1-0.1-0.1-0.1-0.1-0.1l0,0c0,0,0,0,0-0.1
		l0,0V461c0-0.1,0.9-2.7,2.2-3.4c0.5-0.3,0.9-0.3,1.3,0c0.5,0.3,0.7,0.5,0.7,0.9c0,0.7-0.7,1.2-1.6,1.7c0.8-0.1,1.6,0,2.3,0.3
		c0.2,0.1,0.5,0.4,0.6,0.8c0.1,0.4,0,0.9-0.2,1.2c-0.2,0.3-0.6,0.3-0.9,0.3C137.7,462.6,136.3,462.1,134.9,461.4z M135.8,461.1
		c1.5,0.7,3.4,1.3,3.8,0.9c0,0,0.1-0.1,0.1-0.7c0-0.1-0.1-0.3-0.2-0.4c-0.3-0.1-0.8-0.3-1.2-0.3C137.4,460.9,136.6,461,135.8,461.1
		L135.8,461.1z M137.2,458.1c-0.8,0.5-1.4,1.4-1.7,2.5c1.5-0.7,2.9-1.6,2.9-2c0-0.1-0.2-0.3-0.3-0.4
		C137.8,458,137.4,458,137.2,458.1L137.2,458.1z"/>
	<path class="st9" d="M133.5,234.7c0,1.2,0.8,2.1,1.9,2.1c1,0,1.9-0.9,1.9-2.1s-0.8-2.1-1.9-2.1
		C134.3,232.6,133.5,233.5,133.5,234.7L133.5,234.7z"/>
	<path class="st21" d="M166.7,292.6l-27.7,11.1l-0.9-2.9l-1.2-3.5l-0.5,5.1l-0.3,3.9h-33.6c0,0-0.1-1-0.2-3
		c-0.6-12.4-0.1-24.8,1.4-37.2c1.3-10.7,3.6-21.1,7.1-31.1c0.2-0.8,0.6-1.6,0.8-2.3l36-3.1l0.3,2l2.2,14.5l4.3,12.3l10.6,30.1
		L166.7,292.6z"/>
	<path class="st19" d="M80.7,220.4L68.7,227c-0.9,1.8-2.1,3.5-3.3,5.2c-0.8,0.7-10.6,2.2-11.4,2.1s1.6-8.4,3-9.5s9.3-2.2,9.3-2.2
		l13-8.7L80.7,220.4z"/>
	<path class="st13" d="M119.5,236.2c0,0-4.1,25.3-15.9,29.7c1.3-10.7,3.6-21.1,7.1-31.1L119.5,236.2z"/>
	<path class="st13" d="M154.5,258.1c-9.4-5.2-9.3-25.6-9.3-25.6l2.8-1.2l2.2,14.5L154.5,258.1z"/>
	<path class="st18" d="M136.5,302.2l-0.3,3.9h-33.6c0,0-0.1-1-0.2-3L136.5,302.2z"/>
	<polygon class="st18" points="166.7,292.6 139.1,303.5 138.1,300.7 165.2,288.3 	"/>
	<path class="st13" d="M137,297.3l0.7-10.3l7.6-16.7c0,0,2.4,9.7-1.4,18.3C140,297.1,137,297.3,137,297.3z"/>
	<polygon class="st18" points="111.6,232.6 110.1,236.7 148.5,234.7 147.7,229.4 	"/>
	<path class="st6" d="M131.9,231l0.5,4.7c0,0.5,0.5,0.9,0.9,0.8l5.6-0.5c0.5,0,0.8-0.5,0.8-1l0,0l-0.3-4.6c0-0.5-0.5-0.9-0.9-0.9
		l-5.7,0.4C132.2,230,131.9,230.3,131.9,231C131.9,230.9,131.9,231,131.9,231z"/>
	<polygon class="st16" points="122.6,231.5 122.1,237.1 120.7,237.1 120.9,231.5 	"/>
	<polygon class="st16" points="142.7,229.8 143.3,235.7 144.5,235.7 144.1,229.7 	"/>
	<path class="st22" d="M163.2,133c0,0,0.9,6.5-7.9,11"/>
	<path class="st19" d="M141.3,184.6c-7.4-6.1-7.9-11.5-7.9-11.5c7.8-2.2,8.1-14.2,8.1-14.2l8.6,8.1c-0.9,1.3-1.9,2.7-2.7,4.3
		c-3.4,6.5-0.7,8.2-0.7,8.2C146.6,184.2,141.3,184.6,141.3,184.6z"/>
	<path class="st13" d="M150.1,166.9c-0.9,1.3-1.9,2.7-2.7,4.3c-4.1-4-5.9-12.4-5.9-12.4L150.1,166.9z"/>
	<path class="st19" d="M163.1,135.1c8.3,5.6,8.1,12.3,3.6,22.2c-5.7,12.4-12.5,19.2-21.5,9.7C133.3,154,149.5,125.8,163.1,135.1z"/>
	<path class="st23" d="M161.7,153.2c-0.1,1.8,0,3.7,0.3,5.5c-0.9,0.4-2,0.3-2.8-0.4L161.7,153.2z"/>
	<path class="st11" d="M157.2,149.1c-0.3,0.8-1,1.2-1.5,0.9c-0.5-0.3-0.5-1.2-0.1-2c0.3-0.8,1-1.2,1.5-0.9
		C157.5,147.4,157.5,148.3,157.2,149.1z"/>
	<path class="st11" d="M156.8,147l1.9,0.3C158.7,147.4,157.2,148.3,156.8,147z"/>
	<path class="st11" d="M165.7,154.4c-0.3,0.8-1,1.2-1.5,0.9c-0.5-0.3-0.5-1.2-0.1-2c0.3-0.8,1-1.2,1.5-0.8S166.1,153.6,165.7,154.4z
		"/>
	<path class="st11" d="M165.3,152.3l1.9,0.3C167.2,152.7,165.8,153.6,165.3,152.3z"/>
	<path class="st24" d="M160.4,142.7c-1.2-1-2.8-1.4-4.3-1"/>
	<path class="st24" d="M166.7,146.3c1.3,0.5,2.3,1.6,2.8,3"/>
	<path class="st11" d="M145.8,144.5c0,0,7.9-5,10.5-11.2c0,0,20.3,3.7,11,22.7c0,0,10.5-15.4-3.4-25.3s-26.4,13.2-22.9,25.1
		C141.2,155.7,140.8,147.6,145.8,144.5z"/>
	<path class="st25" d="M157,162c0,0-3.7-1.7-3.1-6"/>
	<path class="st6" d="M143.8,142.7c1.2-0.8,2.7-0.8,3.8,0c2.1,1.3,2.2,5.2,5.7,9c3.5,3.8,7.9,3.9,8.8,4.4c0.9,0.5,3.4,5.3,3.4,5.3
		s-2.6,9.7-10.8,11.1c0,0-3.7-0.5-8.1-6.5s-6.5-14.4-4.8-18.3c-0.7,4.8,0.5,9.8,3.4,13.4c0,0,4-2.3,6.4-10.4
		C151.5,150.6,147.6,140.6,143.8,142.7z"/>
	<path class="st19" d="M146,147.4c1-2.3,0.2-5.2-1.9-6.3l0,0c-2.7-1.4-7.1,3.7-1.5,9.3C143.5,151.1,144.5,150.5,146,147.4z"/>
	<path class="st3" d="M148.9,176.9c0,0-2,53.8,9.9,78.9l6.3-4.8c0,0-8.4-43.3-4-67.1L148.9,176.9z"/>
	<path class="st9" d="M148.9,176.9c0,0-2,53.8,9.9,78.9l6.3-4.8c0,0-8.4-43.3-4-67.1L148.9,176.9z"/>
	<path class="st3" d="M129.3,169.9l3.1,8.4c0,0-6.9,45-30.2,72l-9.4-5.9c0,0,14.6-18.1,16.4-38c1.3-12.5,4.1-24.9,8.1-36.7
		L129.3,169.9z"/>
	<path class="st20" d="M129.2,169.9l3.1,8.4c0,0-6.9,45-30.2,72l-9.4-5.9c0,0,14.6-18.1,16.4-38c1.3-12.5,4.1-24.9,8.1-36.7
		L129.2,169.9z"/>
	<path class="st13" d="M115.7,192.1c-0.5,5.3-2.8,10.3-6.4,13.7c0.5-4.4,1-8.9,2-13.3L115.7,192.1z"/>
	<path class="st3" d="M117.3,169.9c0,0-5.2-1-19.4,20.4s-29,29.6-29,29.6l3.3,6.1c0,0,20.2-10.3,27-19c4.9-5.9,10.5-11,16.6-15
		c0,0,3.3-7,3.7-13.3S117.3,169.9,117.3,169.9z"/>
	<path class="st20" d="M117.3,169.9c0,0-5.2-1-19.4,20.4s-29,29.6-29,29.6l3.3,6.1c0,0,20.2-10.3,27-19c4.9-5.9,10.5-11,16.6-15
		c0,0,3.3-7,3.7-13.3S117.3,169.9,117.3,169.9z"/>
	<path class="st11" d="M171.3,236.7c0,0,4.2-27.5,3.4-33.4c-0.8-5.9-17.1-22.3-17.1-22.3l-2.4-0.7c0,0,16.6,18.4,17.5,22.7
		c0.9,4.3-4.5,36.9-4.5,36.9L171.3,236.7z"/>
	<path class="st12" d="M171.3,236.7c0,0,4.2-27.5,3.4-33.4c-0.8-5.9-17.1-22.3-17.1-22.3l-2.4-0.7c0,0,16.6,18.4,17.5,22.7
		c0.9,4.3-4.5,36.9-4.5,36.9L171.3,236.7z"/>
	<path class="st22" d="M159.4,126.1c0,0,11.2,0.7,13.8,7.2c2.7,6.5-0.5,21.4,1.6,27.3s8,22.4-2.6,29.9"/>
</g>
</svg>
